<?xml version="1.0" standalone="no"?>
<!DOCTYPE svg PUBLIC "-//W3C//DTD SVG 20010904//EN"
 "http://www.w3.org/TR/2001/REC-SVG-20010904/DTD/svg10.dtd">
<svg version="1.0" xmlns="http://www.w3.org/2000/svg"
 width="459.000000pt" height="459.000000pt" viewBox="0 0 459.000000 459.000000"
 preserveAspectRatio="xMidYMid meet">
<metadata>
Created by potrace 1.10, written by Peter Selinger 2001-2011
</metadata>
<g transform="translate(0.000000,459.000000) scale(0.100000,-0.100000)"
fill="#00000f" stroke="none">
<path d="M2170 4457 c-18 -9 -26 -22 -28 -45 -4 -41 8 -57 71 -89 45 -23 48
-26 34 -41 -13 -13 -23 -14 -51 -5 -37 12 -56 2 -56 -28 0 -11 11 -18 39 -22
51 -6 85 1 110 24 43 40 19 96 -53 123 -46 18 -59 39 -31 50 8 3 27 1 42 -5
28 -11 45 2 40 31 -3 20 -83 25 -117 7z"/>
<path d="M1965 4448 c-27 -5 -60 -12 -73 -14 -13 -3 -20 -8 -18 -13 3 -5 13
-55 21 -112 9 -56 17 -105 19 -106 7 -8 150 23 153 32 1 6 -1 16 -6 24 -7 11
-17 12 -52 3 -47 -12 -66 -4 -56 22 4 11 19 16 47 16 37 0 40 2 40 26 0 25 -2
26 -32 19 -60 -13 -63 -12 -66 23 l-3 32 51 0 c50 0 51 1 48 27 -4 32 -8 33
-73 21z"/>
<path d="M2557 4348 c-10 -51 -20 -102 -23 -114 -5 -19 1 -22 63 -33 89 -16
87 -16 91 14 3 24 1 25 -43 25 -40 0 -47 3 -55 26 -13 34 -13 67 1 58 6 -3 9
-15 6 -25 -3 -11 -2 -17 2 -14 4 2 25 -1 45 -7 31 -10 39 -9 47 3 14 23 5 34
-37 39 -32 4 -40 9 -42 29 -5 36 10 43 55 27 44 -15 63 -8 63 25 0 12 -13 18
-51 23 -29 4 -64 9 -79 12 -26 6 -27 5 -43 -88z"/>
<path d="M1273 4375 c-62 -29 -113 -56 -113 -59 0 -5 217 98 227 108 12 12 -3
5 -114 -49z"/>
<path d="M3110 4425 c0 -7 61 -37 66 -33 2 3 -12 12 -31 21 -19 9 -35 15 -35
12z"/>
<path d="M2810 4381 c0 -5 -3 -16 -6 -25 -4 -11 0 -16 12 -16 41 0 44 -13 20
-80 -39 -109 -39 -105 -10 -119 15 -6 28 -10 29 -9 1 2 12 37 24 78 13 41 24
81 27 89 2 7 11 10 19 7 8 -3 22 -9 30 -12 9 -4 16 0 17 10 0 9 1 21 2 27 1 7
-30 22 -69 35 -78 26 -95 28 -95 15z"/>
<path d="M3191 4386 c10 -9 109 -56 109 -51 0 5 -95 55 -106 55 -4 0 -5 -2 -3
-4z"/>
<path d="M1613 4367 c-24 -5 -43 -15 -43 -21 0 -6 11 -47 25 -91 14 -44 25
-88 25 -97 0 -27 16 -30 70 -14 72 21 106 49 114 91 8 42 -21 118 -52 134 -25
13 -81 12 -139 -2z m116 -51 c7 -8 14 -30 18 -49 4 -29 1 -37 -22 -55 -15 -12
-33 -22 -39 -22 -10 0 -47 100 -46 128 0 17 75 16 89 -2z"/>
<path d="M3310 4325 c0 -2 15 -12 33 -20 l32 -16 -25 20 c-24 20 -40 26 -40
16z"/>
<path d="M3035 4224 c-19 -42 -35 -89 -35 -104 0 -44 62 -90 123 -90 42 0 64
23 107 114 32 68 32 79 -5 90 -17 5 -25 -5 -53 -68 -19 -41 -41 -77 -49 -80
-20 -8 -63 20 -63 39 0 9 16 47 35 85 34 67 34 70 16 80 -34 18 -41 12 -76
-66z"/>
<path d="M1278 4229 c-24 -14 -23 -19 17 -88 48 -81 44 -121 -12 -121 -18 0
-31 16 -64 75 -22 41 -44 75 -47 75 -4 0 -16 -7 -27 -16 -20 -15 -20 -15 4
-57 13 -23 33 -59 44 -79 35 -63 101 -71 163 -20 50 42 51 59 3 153 -24 49
-48 88 -54 88 -5 0 -18 -4 -27 -10z"/>
<path d="M3301 4060 c-34 -49 -61 -93 -61 -97 0 -19 110 -75 147 -75 65 0 128
89 107 150 -9 25 -105 112 -124 112 -4 0 -36 -40 -69 -90z m116 -2 c13 -12 23
-31 23 -43 0 -30 -37 -75 -60 -75 -23 0 -70 20 -70 30 0 4 14 24 30 45 17 21
30 44 30 51 0 21 21 17 47 -8z"/>
<path d="M3742 4025 c15 -16 29 -27 31 -24 3 2 -10 15 -27 28 l-31 24 27 -28z"/>
<path d="M944 3998 c4 -13 17 -70 31 -126 13 -57 26 -106 29 -109 9 -10 46 29
46 48 0 22 56 70 74 63 16 -6 56 12 56 24 0 8 -221 122 -235 122 -4 0 -4 -10
-1 -22z m98 -72 l38 -23 -25 -23 -24 -23 -11 27 c-5 15 -10 32 -10 37 0 5 -4
9 -10 9 -5 0 -10 5 -10 10 0 15 11 12 52 -14z"/>
<path d="M655 3938 l-70 -73 73 70 c39 38 72 71 72 72 0 8 -11 -2 -75 -69z"/>
<path d="M3835 3940 c21 -22 41 -40 44 -40 3 0 -13 18 -34 40 -21 22 -41 40
-44 40 -3 0 13 -18 34 -40z"/>
<path d="M3546 3880 l-77 -91 23 -19 23 -19 30 37 c16 20 51 60 77 88 l48 51
-23 21 -23 22 -78 -90z"/>
<path d="M733 3817 l-52 -53 84 -83 84 -82 55 58 c55 56 56 58 38 76 -19 18
-20 18 -51 -22 -20 -25 -37 -38 -46 -34 -24 8 -18 29 17 58 29 25 30 27 14 43
-16 16 -19 15 -47 -18 l-29 -34 -22 22 -22 22 37 38 c29 30 34 41 25 50 -20
20 -31 14 -85 -41z"/>
<path d="M551 3826 l-24 -31 28 27 c16 15 27 29 24 31 -2 3 -15 -10 -28 -27z"/>
<path d="M3720 3754 c-52 -18 -105 -33 -117 -33 -12 -1 -25 -6 -28 -12 -10
-15 26 -51 46 -46 25 7 73 -46 65 -70 -4 -13 1 -26 13 -37 21 -19 41 -14 41 8
0 13 23 68 70 173 11 23 16 44 12 46 -4 2 -50 -11 -102 -29z m32 -51 c-10 -16
-22 -36 -25 -45 -9 -24 -19 -22 -40 7 -18 25 -18 25 8 35 15 6 33 10 41 10 8
0 14 5 14 10 0 6 5 10 11 10 6 0 2 -12 -9 -27z"/>
<path d="M593 3644 c-6 -3 -31 -30 -55 -61 l-43 -56 29 -21 c16 -12 58 -42 93
-69 66 -48 75 -50 93 -16 9 16 6 21 -25 36 -62 30 -38 63 31 44 34 -9 41 -8
61 11 33 31 29 37 -24 40 -41 3 -48 6 -51 25 -6 43 -71 82 -109 67z m54 -74
c2 -8 -5 -26 -15 -39 -17 -21 -21 -22 -40 -10 -26 17 -27 27 -5 51 19 22 57
20 60 -2z"/>
<path d="M2080 3592 c-108 -63 -189 -185 -230 -348 -8 -33 -18 -45 -52 -63
-161 -88 -332 -210 -316 -226 3 -3 28 10 54 30 55 42 176 105 249 129 l50 16
39 102 c21 57 52 127 69 157 31 55 124 154 137 146 7 -4 1 -186 -6 -194 -2 -2
-10 4 -19 12 -9 9 -15 33 -15 61 0 25 -5 48 -10 51 -23 14 -47 -120 -36 -199
8 -51 26 -63 26 -17 0 43 11 91 21 91 5 0 9 -10 9 -22 1 -39 35 -101 87 -158
57 -61 78 -63 39 -3 -42 64 -59 153 -53 273 3 58 12 124 20 148 13 38 13 42
-2 41 -9 -1 -36 -13 -61 -27z"/>
<path d="M3941 3606 c-7 -8 -48 -39 -92 -67 -79 -53 -89 -65 -67 -87 20 -20
32 -14 81 35 26 25 49 45 51 42 3 -2 -4 -29 -14 -59 -21 -64 -36 -164 -24
-159 31 13 193 126 193 134 0 6 -6 18 -14 29 -13 18 -16 17 -64 -21 -28 -22
-48 -42 -46 -45 3 -3 -3 -12 -14 -22 -16 -15 -19 -15 -24 -1 -4 8 -2 15 4 15
6 0 8 4 4 9 -3 6 1 13 9 18 17 10 51 172 38 185 -5 5 -14 3 -21 -6z"/>
<path d="M2345 3455 c-84 -48 -157 -111 -181 -157 -24 -45 -17 -42 56 22 39
35 73 60 76 57 3 -3 -2 -19 -10 -36 -18 -34 -23 -97 -6 -71 7 11 10 2 10 -32
0 -26 4 -49 9 -52 10 -7 21 27 21 64 0 32 59 155 93 196 27 31 34 54 19 54 -4
0 -43 -20 -87 -45z"/>
<path d="M219 3329 c-33 -67 -58 -124 -55 -126 3 -3 10 6 15 19 5 14 32 71 60
127 28 55 49 101 46 101 -3 0 -32 -54 -66 -121z"/>
<path d="M416 3400 l-16 -28 76 -38 c41 -21 78 -42 80 -46 3 -4 2 -19 -2 -33
-10 -42 -44 -42 -120 1 -64 36 -67 36 -80 19 -8 -10 -14 -24 -14 -30 0 -13
143 -85 171 -85 49 0 99 61 99 122 0 41 -11 52 -106 105 l-71 40 -17 -27z"/>
<path d="M4262 3345 c12 -24 23 -43 26 -41 4 5 -36 86 -43 86 -3 0 5 -20 17
-45z"/>
<path d="M4090 3340 c-12 -8 -13 -13 -2 -30 15 -24 16 -40 2 -40 -22 0 -150
-63 -150 -74 0 -7 6 -21 14 -31 12 -17 17 -16 90 23 43 23 80 42 82 42 2 0 9
-11 14 -25 11 -28 19 -30 43 -12 16 11 14 18 -21 84 -37 74 -45 80 -72 63z"/>
<path d="M4290 3289 c0 -13 42 -101 47 -96 2 3 -7 27 -21 54 -14 26 -25 45
-26 42z"/>
<path d="M2230 3171 c0 -5 53 -29 118 -55 64 -25 135 -57 157 -69 35 -20 40
-27 37 -56 -1 -18 -9 -48 -17 -68 l-15 -36 -60 6 c-36 4 -60 3 -60 -3 0 -10 5
-11 95 -30 28 -6 87 -31 133 -55 47 -25 82 -39 82 -32 0 15 -71 63 -117 78
-37 12 -44 29 -12 29 29 0 251 -115 283 -147 26 -26 44 -69 33 -79 -3 -3 -24
-8 -46 -11 -46 -6 -50 -12 -21 -31 21 -13 26 -47 10 -72 -14 -22 -192 -27
-262 -6 -68 20 -135 63 -151 98 -18 42 -27 34 -27 -23 0 -47 2 -51 21 -46 20
5 89 -20 89 -32 0 -3 -64 -6 -143 -6 -160 0 -218 -14 -278 -65 -40 -35 -29
-38 35 -9 26 11 59 19 74 17 26 -3 26 -4 -14 -25 -22 -12 -57 -40 -78 -63 -36
-40 -96 -151 -96 -177 0 -23 16 -13 32 20 50 104 179 212 298 248 61 18 89 20
284 17 l218 -3 24 28 c17 20 24 40 24 68 0 22 5 39 11 39 6 0 27 8 46 17 39
18 68 71 57 105 -7 23 -60 48 -102 48 -27 0 -286 110 -306 130 -6 6 -5 25 3
50 21 72 -2 89 -232 171 -114 41 -127 44 -127 30z m713 -446 c8 -18 -11 -31
-25 -17 -11 11 -3 32 12 32 4 0 10 -7 13 -15z"/>
<path d="M266 3058 c-43 -99 -49 -88 74 -132 61 -21 112 -37 114 -35 13 19 37
132 32 153 -9 38 -50 55 -75 32 -21 -19 -41 -14 -41 9 0 15 -22 25 -56 25 -21
0 -29 -10 -48 -52z m89 -8 c3 -5 3 -21 -1 -35 -4 -17 -13 -25 -28 -25 -32 0
-36 7 -24 41 10 29 40 40 53 19z m83 -52 c-2 -23 -9 -34 -22 -36 -26 -5 -40
12 -32 42 5 19 13 26 32 26 22 0 25 -4 22 -32z"/>
<path d="M4157 3088 c-21 -17 -37 -61 -37 -104 0 -27 -4 -34 -19 -34 -20 0
-31 25 -31 73 0 22 -5 27 -23 27 -34 0 -36 -6 -22 -62 17 -64 39 -88 81 -88
45 0 74 38 74 96 0 37 3 44 19 44 16 0 20 -8 23 -37 3 -33 6 -38 28 -38 22 0
25 4 22 30 -8 86 -64 131 -115 93z"/>
<path d="M2220 3041 c-46 -24 -64 -58 -46 -86 20 -31 57 -45 105 -43 57 4 69
28 14 28 -81 0 -119 47 -63 78 17 9 39 22 48 29 16 11 15 12 -3 13 -11 0 -36
-8 -55 -19z"/>
<path d="M2280 3001 c0 -5 20 -12 45 -15 38 -6 45 -11 45 -30 0 -37 18 -47 59
-31 20 8 45 15 56 17 15 2 8 10 -31 36 -43 27 -60 32 -112 32 -34 0 -62 -4
-62 -9z m140 -52 c0 -10 -4 -19 -9 -19 -14 0 -33 28 -27 39 10 16 36 1 36 -20z"/>
<path d="M1867 2961 c-36 -40 -75 -130 -84 -193 -8 -53 11 -47 28 8 8 25 18
47 24 47 5 1 13 -17 17 -41 8 -46 66 -164 85 -169 6 -2 -1 24 -15 59 -23 54
-27 77 -27 163 0 77 4 107 18 133 25 46 -1 43 -46 -7z"/>
<path d="M1508 2913 c-129 -125 -222 -271 -270 -423 -32 -103 -32 -304 0 -429
26 -103 48 -133 37 -51 -54 404 8 607 273 909 30 34 49 61 42 61 -7 0 -43 -30
-82 -67z"/>
<path d="M1374 2854 c-76 -78 -142 -176 -189 -277 -36 -77 -63 -200 -52 -230
11 -29 27 -19 27 16 0 127 98 318 258 506 63 73 31 63 -44 -15z"/>
<path d="M1942 2741 c3 -45 11 -68 32 -95 31 -42 97 -79 129 -73 20 3 19 5 -8
16 -66 27 -134 120 -135 184 0 15 -5 27 -11 27 -8 0 -10 -20 -7 -59z"/>
<path d="M1823 2703 c-8 -21 13 -98 35 -128 24 -32 72 -64 110 -71 38 -8 44
11 7 20 -44 11 -103 79 -120 141 -18 59 -22 64 -32 38z"/>
<path d="M257 2673 c-11 -17 -28 -243 -25 -318 3 -75 4 -80 26 -83 23 -4 23
-2 17 50 -6 49 9 285 22 336 4 17 1 22 -15 22 -12 0 -23 -3 -25 -7z"/>
<path d="M4214 2664 c12 -33 27 -211 24 -299 -2 -88 -2 -90 21 -93 l24 -4 -7
169 c-9 227 -12 243 -43 243 -19 0 -24 -4 -19 -16z"/>
<path d="M1341 2557 c-75 -196 -72 -488 5 -638 28 -56 99 -132 156 -169 80
-52 251 -118 368 -142 75 -16 119 -19 210 -15 133 7 216 26 391 93 68 26 176
66 239 90 205 78 388 124 585 145 143 15 463 5 608 -19 105 -18 156 -13 80 7
-158 42 -280 55 -508 56 -200 0 -245 -3 -342 -23 -149 -30 -272 -67 -519 -158
-293 -107 -385 -128 -554 -129 -153 0 -230 15 -367 73 -203 84 -294 184 -344
380 -23 93 -25 260 -4 381 15 87 13 114 -4 68z"/>
<path d="M1387 2324 c-23 -24 8 -211 51 -307 34 -74 114 -162 157 -173 33 -8
46 5 21 20 -105 62 -174 186 -205 369 -9 54 -20 95 -24 91z"/>
<path d="M4100 2110 c0 -27 0 -53 0 -57 0 -11 154 -21 161 -11 3 5 6 31 8 59
2 44 0 50 -16 47 -13 -3 -18 -13 -18 -38 0 -26 -5 -36 -19 -38 -16 -4 -18 0
-12 32 6 29 4 36 -9 36 -10 0 -15 -10 -15 -30 0 -26 -4 -30 -26 -30 -25 0 -25
2 -19 40 6 36 5 40 -14 40 -19 0 -21 -6 -21 -50z"/>
<path d="M315 2143 c-65 -4 -85 -14 -67 -35 7 -9 32 -12 89 -8 72 5 78 7 81
28 3 18 -1 22 -20 20 -13 -1 -50 -3 -83 -5z"/>
<path d="M398 2054 c-4 -3 -37 -9 -74 -12 -68 -7 -81 -15 -65 -41 7 -11 15
-11 45 0 19 7 38 10 42 6 4 -3 -13 -29 -36 -57 -23 -28 -40 -53 -37 -57 4 -3
42 0 87 7 67 10 80 15 80 31 0 21 -16 24 -54 9 -42 -16 -41 7 3 59 22 26 38
51 34 55 -8 8 -18 8 -25 0z"/>
<path d="M4087 1994 c-4 -4 -7 -15 -7 -24 0 -13 12 -19 50 -24 67 -9 80 -15
80 -36 0 -33 -23 -41 -79 -28 -44 10 -54 9 -62 -3 -18 -29 -11 -33 82 -44 64
-7 86 8 96 68 7 46 -19 72 -82 81 -26 4 -53 10 -59 12 -7 3 -15 1 -19 -2z"/>
<path d="M390 1850 c-8 -5 -19 -26 -25 -46 -14 -51 -35 -56 -35 -10 0 29 -4
36 -20 36 -15 0 -20 -7 -20 -26 0 -43 28 -83 58 -84 20 0 52 39 52 64 0 45 32
47 35 3 1 -12 9 -23 18 -25 25 -5 22 53 -3 78 -22 22 -37 25 -60 10z"/>
<path d="M4058 1773 c-28 -33 -39 -64 -33 -93 8 -37 34 -60 78 -67 31 -5 40
-1 67 25 18 18 30 41 30 56 0 14 5 26 10 26 23 0 7 20 -34 44 -52 30 -96 33
-118 9z m90 -40 c2 -7 -3 -13 -12 -13 -9 0 -16 -7 -16 -16 0 -11 6 -15 20 -11
29 8 25 -21 -5 -35 -19 -9 -29 -8 -50 6 -27 18 -31 36 -14 67 7 15 19 19 41
17 17 -2 33 -9 36 -15z"/>
<path d="M459 1713 c-1 -5 -1 -15 0 -24 1 -12 -15 -21 -59 -33 -39 -11 -60
-22 -60 -32 0 -24 24 -26 79 -5 50 19 51 19 61 0 12 -22 40 -26 40 -6 0 31
-33 107 -46 107 -8 0 -15 -3 -15 -7z"/>
<path d="M3979 1579 c-11 -21 -17 -17 100 -61 44 -17 55 -18 62 -7 5 8 9 17 9
20 0 3 -36 19 -80 36 -77 30 -81 30 -91 12z"/>
<path d="M455 1540 c-73 -29 -80 -36 -66 -59 13 -20 156 40 156 65 0 26 -13
25 -90 -6z"/>
<path d="M4333 1493 c-3 -10 -28 -64 -54 -120 -26 -57 -45 -103 -43 -103 3 0
27 46 53 103 53 113 63 137 55 137 -2 0 -7 -8 -11 -17z"/>
<path d="M551 1491 c-8 -5 -11 -17 -7 -28 5 -16 -3 -23 -51 -43 -71 -29 -67
-24 -53 -49 11 -21 11 -21 68 10 52 27 58 29 69 13 7 -9 19 -14 27 -11 13 5
12 13 -8 57 -29 61 -28 61 -45 51z"/>
<path d="M3948 1483 c-46 -53 -49 -94 -9 -134 41 -41 90 -40 125 2 38 45 36
93 -5 114 -17 9 -32 15 -32 13 -1 -2 -8 -13 -14 -25 -7 -13 -13 -27 -13 -33 0
-16 22 -12 36 8 12 16 13 16 20 -2 14 -36 -27 -73 -69 -62 -37 9 -46 50 -18
80 24 25 28 56 8 56 -8 0 -21 -8 -29 -17z"/>
<path d="M176 1444 c24 -56 93 -194 99 -194 5 0 -99 218 -109 227 -4 4 1 -11
10 -33z"/>
<path d="M563 1314 c-44 -28 -53 -40 -53 -64 0 -32 43 -90 67 -90 12 0 103 46
131 65 7 5 -11 35 -22 35 -6 0 -31 -13 -55 -29 -35 -23 -49 -28 -63 -20 -31
17 -18 49 32 75 27 14 45 31 45 41 0 28 -26 24 -82 -13z"/>
<path d="M3864 1295 c-28 -11 -64 -65 -64 -93 0 -21 52 -71 81 -77 77 -17 138
96 81 149 -31 27 -66 35 -98 21z m70 -54 c31 -34 -3 -89 -47 -77 -13 3 -29 17
-36 32 -10 22 -9 30 5 45 22 24 56 24 78 0z"/>
<path d="M1969 1221 c-19 -16 -21 -22 -12 -32 10 -10 17 -9 32 5 23 21 51 15
51 -11 0 -10 -20 -42 -45 -70 -25 -28 -42 -54 -38 -56 5 -2 32 -5 61 -5 39 -1
52 3 52 14 0 9 -11 14 -30 14 l-30 0 30 42 c36 49 38 81 8 102 -30 21 -51 20
-79 -3z"/>
<path d="M2123 1214 c-23 -36 -23 -117 2 -144 45 -49 105 -7 105 75 0 85 -68
129 -107 69z m65 -16 c7 -7 12 -31 12 -54 0 -70 -53 -88 -65 -22 -12 61 21
108 53 76z"/>
<path d="M2282 1224 c-12 -8 -22 -22 -22 -30 0 -19 26 -18 34 1 7 20 42 19 50
-1 7 -19 4 -25 -46 -85 -21 -26 -38 -49 -38 -51 0 -3 27 -6 60 -6 46 -1 60 2
60 14 0 9 -11 14 -30 14 -16 0 -30 3 -30 6 0 4 14 22 30 41 35 39 38 65 10 93
-24 24 -48 25 -78 4z"/>
<path d="M2427 1222 c-9 -10 -17 -24 -17 -30 0 -18 21 -14 36 6 10 13 17 15
30 6 29 -17 27 -29 -21 -86 -25 -30 -45 -57 -45 -61 0 -3 27 -5 60 -5 45 0 60
4 60 14 0 9 -11 14 -30 14 -33 0 -38 11 -14 31 8 7 22 26 31 42 14 27 13 32
-5 56 -24 32 -62 38 -85 13z"/>
<path d="M715 1190 c-3 -6 -4 -19 0 -29 4 -14 -6 -26 -45 -51 -34 -22 -49 -38
-46 -47 4 -8 6 -17 6 -19 0 -13 28 0 66 31 43 35 64 44 64 25 0 -5 9 -10 20
-10 28 0 25 13 -12 64 -35 47 -43 53 -53 36z"/>
<path d="M3710 1095 c-7 -9 -11 -17 -9 -18 2 -2 33 -25 68 -51 l63 -48 29 34
c32 37 36 53 15 61 -9 4 -21 -5 -31 -19 l-16 -25 -48 41 c-54 45 -54 45 -71
25z"/>
<path d="M3638 1004 c-29 -15 -58 -61 -58 -90 0 -25 65 -84 93 -84 31 0 71 31
86 69 17 39 -8 87 -54 107 -40 17 -34 17 -67 -2z m70 -46 c20 -20 15 -66 -8
-78 -40 -21 -88 16 -73 57 12 33 57 45 81 21z"/>
<path d="M823 953 c-26 -26 -43 -53 -43 -67 0 -26 60 -86 85 -86 9 0 39 22 68
50 49 47 51 50 35 67 -17 16 -20 15 -54 -25 -37 -44 -77 -56 -88 -26 -8 20 1
34 47 74 30 26 35 35 26 46 -17 21 -30 16 -76 -33z"/>
<path d="M3505 875 c-20 -15 -20 -15 8 -38 46 -39 36 -50 -38 -42 -36 3 -65 4
-65 0 0 -13 105 -125 117 -125 25 0 24 22 -1 49 -14 15 -26 31 -26 35 0 5 29
6 65 3 36 -4 65 -4 65 0 0 3 -17 24 -37 47 -21 22 -45 51 -53 64 -14 21 -16
22 -35 7z"/>
<path d="M551 854 c13 -17 26 -30 28 -27 3 2 -8 16 -24 31 l-28 27 24 -31z"/>
<path d="M996 845 c-10 -15 -33 -44 -53 -66 -30 -33 -33 -42 -23 -54 12 -14
15 -14 31 1 10 9 21 25 24 35 12 37 24 18 31 -51 3 -38 11 -70 15 -70 5 0 9 4
9 8 0 4 23 34 51 65 42 47 49 60 39 72 -18 22 -26 19 -51 -21 -26 -42 -35 -34
-38 39 -3 64 -13 76 -35 42z"/>
<path d="M655 740 c38 -38 72 -70 74 -70 3 0 -26 32 -64 70 -38 39 -72 70 -74
70 -3 0 26 -31 64 -70z"/>
<path d="M3835 738 l-40 -43 43 40 c23 21 42 40 42 42 0 8 -9 0 -45 -39z"/>
<path d="M3353 753 c-19 -7 -16 -24 9 -51 l23 -23 -25 -19 c-33 -26 -35 -25
-50 10 -7 17 -18 30 -25 30 -18 0 -38 -27 -26 -34 5 -3 26 -32 47 -63 20 -32
38 -59 39 -61 1 -1 10 0 19 4 21 8 20 23 -1 46 -17 19 -16 20 7 39 27 20 40
24 40 11 0 -5 6 -17 14 -27 12 -16 16 -17 29 -6 14 11 11 21 -30 82 -25 38
-49 69 -52 68 -3 0 -12 -3 -18 -6z"/>
<path d="M1149 718 c-6 -13 -27 -42 -46 -65 -34 -43 -36 -63 -5 -62 21 0 105
116 98 135 -8 21 -34 17 -47 -8z"/>
<path d="M1226 642 c-4 -31 -9 -74 -12 -95 -5 -30 -3 -38 7 -35 27 6 149 93
145 103 -6 20 -42 15 -66 -10 -25 -27 -56 -34 -47 -11 3 8 9 30 12 49 6 29 3
37 -13 46 -18 10 -20 6 -26 -47z"/>
<path d="M3149 617 c-81 -54 -22 -190 69 -156 33 13 72 48 72 66 0 20 -44 15
-58 -7 -14 -23 -54 -26 -71 -6 -7 8 -11 27 -9 43 2 23 8 29 35 31 31 3 60 32
46 46 -13 13 -51 5 -84 -17z"/>
<path d="M1368 517 l-36 -73 49 -23 c47 -21 69 -21 69 -1 0 6 -17 17 -37 25
-28 12 -34 18 -25 27 10 10 17 10 32 0 26 -16 40 -15 40 3 0 8 -11 17 -26 21
-16 4 -24 12 -22 23 4 16 25 18 66 6 17 -6 22 -3 22 11 0 13 -14 25 -43 37
-23 9 -45 17 -47 17 -3 0 -22 -33 -42 -73z"/>
<path d="M2988 541 c-48 -22 -53 -28 -41 -43 5 -7 20 -39 33 -70 12 -32 25
-58 29 -58 22 0 101 36 101 46 0 22 -20 26 -46 9 -24 -15 -44 -13 -44 5 0 4
13 13 30 18 21 8 28 16 24 26 -8 20 -9 20 -39 0 -22 -14 -24 -14 -35 6 -10 18
-7 22 24 35 24 10 34 20 30 30 -8 19 -19 18 -66 -4z"/>
<path d="M1546 522 c-20 -33 -55 -147 -47 -155 14 -14 39 -1 43 23 5 34 23 24
28 -16 4 -27 11 -39 28 -45 23 -9 24 -8 17 31 -4 26 -3 40 4 40 6 0 18 11 27
25 16 25 12 59 -9 68 -7 3 -29 12 -49 21 -20 9 -39 12 -42 8z m64 -57 c16 -19
4 -35 -26 -35 -17 0 -24 6 -24 18 0 34 28 43 50 17z"/>
<path d="M2837 482 c-52 -17 -63 -47 -17 -47 21 0 27 -8 41 -55 16 -53 39 -74
54 -50 3 5 -3 35 -14 66 -25 66 -25 61 -1 67 13 3 18 10 14 21 -7 19 -13 18
-77 -2z"/>
<path d="M1713 449 c-21 -22 -15 -51 19 -86 37 -38 31 -52 -14 -35 -41 15 -64
-1 -34 -24 26 -18 90 -18 106 1 17 21 5 59 -25 79 -25 16 -34 46 -15 46 6 0
19 -6 30 -12 17 -11 22 -10 30 2 13 20 0 31 -46 37 -25 3 -44 0 -51 -8z"/>
<path d="M1865 403 c-4 -16 -10 -47 -16 -70 -14 -64 -12 -75 13 -71 19 3 23
13 34 77 7 41 11 79 8 83 -11 18 -34 6 -39 -19z"/>
<path d="M2598 423 c-32 -5 -32 -9 -14 -103 l12 -65 35 3 c58 4 79 12 79 27 0
12 -10 15 -40 13 -47 -4 -54 13 -10 25 41 10 33 32 -11 32 -23 0 -35 5 -37 17
-2 12 5 17 30 20 22 2 34 9 36 21 4 18 -14 20 -80 10z"/>
<path d="M1946 402 c-3 -6 3 -17 14 -25 19 -13 21 -21 15 -74 -6 -51 -5 -61 9
-66 20 -8 23 0 34 73 7 49 10 55 30 52 17 -2 22 2 22 17 0 15 -6 21 -22 21
-13 0 -39 3 -59 6 -21 4 -39 2 -43 -4z"/>
<path d="M2412 393 c-23 -4 -23 -6 -17 -81 4 -42 11 -81 16 -86 14 -15 37 12
32 38 -8 38 13 39 36 1 13 -22 28 -35 41 -35 26 0 26 22 0 45 -14 13 -17 22
-10 29 5 5 10 25 10 43 0 47 -32 60 -108 46z m66 -51 c3 -18 -1 -22 -22 -22
-19 0 -26 5 -26 18 0 39 43 43 48 4z"/>
<path d="M2154 368 c-3 -13 -22 -49 -40 -81 -28 -48 -31 -59 -19 -64 9 -3 23
1 33 10 18 16 72 13 72 -4 0 -5 11 -9 25 -9 30 0 30 -3 6 46 -11 23 -26 59
-33 82 -14 46 -33 54 -44 20z m33 -74 c8 -20 -8 -36 -26 -25 -15 10 -8 41 9
41 6 0 13 -7 17 -16z"/>
<path d="M2294 338 c3 -29 6 -68 6 -85 0 -26 4 -33 20 -33 18 0 20 7 20 85 l0
85 -26 0 c-26 0 -27 -1 -20 -52z"/>
<path d="M3338 374 c-38 -20 -36 -28 2 -9 17 9 30 18 30 20 0 7 -1 6 -32 -11z"/>
<path d="M1160 365 c0 -5 169 -91 208 -106 15 -6 24 -7 20 -3 -10 9 -228 114
-228 109z"/>
<path d="M3241 324 c-18 -8 -31 -17 -28 -20 5 -6 67 23 67 31 0 6 3 7 -39 -11z"/>
<path d="M3137 275 c-26 -12 -51 -26 -55 -30 -9 -9 53 17 94 38 44 24 16 19
-39 -8z"/>
</g>
</svg>
