<?xml version="1.0" standalone="no"?>
<!DOCTYPE svg PUBLIC "-//W3C//DTD SVG 20010904//EN"
 "http://www.w3.org/TR/2001/REC-SVG-20010904/DTD/svg10.dtd">
<svg version="1.0" xmlns="http://www.w3.org/2000/svg"
 width="900.000000pt" height="831.000000pt" viewBox="0 0 900.000000 831.000000"
 preserveAspectRatio="xMidYMid meet">
<metadata>
Created by potrace 1.10, written by Peter Selinger 2001-2011
</metadata>
<g transform="translate(0.000000,831.000000) scale(0.100000,-0.100000)"
fill="#000000" stroke="none">
<path d="M3625 6613 c-19 -20 -35 -40 -35 -44 0 -4 -8 -15 -17 -25 -22 -21
-36 -145 -23 -194 6 -21 26 -48 50 -69 40 -33 53 -71 26 -71 -8 0 -21 -6 -28
-12 -7 -7 -47 -30 -88 -51 -41 -21 -100 -51 -130 -67 -30 -16 -76 -38 -101
-50 -65 -29 -83 -51 -75 -92 22 -103 22 -103 -28 -137 -53 -37 -57 -55 -27
-141 11 -30 22 -91 25 -135 4 -44 12 -119 18 -166 11 -83 13 -86 50 -113 65
-47 66 -49 74 -296 3 -124 11 -231 16 -237 13 -17 61 -40 98 -48 16 -4 32 -11
35 -16 4 -5 17 -9 31 -9 14 0 35 -5 47 -12 12 -6 35 -14 51 -17 16 -4 31 -11
33 -18 3 -7 -38 -12 -129 -16 -144 -6 -274 -22 -292 -36 -6 -4 -36 -11 -66
-15 -30 -4 -59 -11 -65 -15 -5 -5 -27 -12 -49 -15 -21 -4 -46 -11 -55 -15 -9
-5 -52 -26 -96 -47 -118 -57 -249 -164 -336 -276 -32 -40 -89 -158 -89 -184
-1 -61 -34 -88 -46 -36 -10 41 -32 72 -53 72 -43 0 -111 -106 -111 -175 0 -18
7 -48 15 -68 18 -43 89 -97 128 -97 22 0 40 -11 67 -41 21 -22 54 -58 74 -80
38 -41 45 -66 24 -88 -17 -16 -18 -222 -2 -242 6 -8 14 -27 18 -43 7 -29 129
-156 150 -156 6 0 25 -8 41 -17 24 -13 53 -16 139 -15 60 1 117 4 128 8 13 4
23 -3 36 -27 9 -18 35 -50 57 -72 36 -35 44 -38 81 -34 60 6 128 54 132 93 5
50 -11 77 -54 89 -53 15 -59 47 -12 69 84 38 133 16 108 -48 -14 -38 12 -76
51 -76 37 0 105 42 114 71 21 65 0 137 -60 202 -35 38 -37 39 -97 35 -73 -4
-92 12 -68 58 9 16 15 55 15 98 0 83 -24 142 -82 207 -78 87 -243 136 -332 99
-31 -13 -34 -12 -68 24 -35 35 -35 37 -18 56 19 21 31 103 21 143 -3 14 -17
35 -31 48 -32 31 -31 42 8 71 47 36 217 118 244 118 13 0 31 4 41 10 9 5 42
13 72 19 30 5 73 14 95 19 52 13 248 23 262 14 8 -5 14 -70 19 -182 3 -96 11
-181 17 -187 15 -20 -11 -70 -43 -81 -27 -10 -46 -47 -29 -57 5 -3 22 4 39 16
16 13 32 21 34 18 3 -2 10 -88 16 -189 6 -102 15 -216 20 -255 5 -38 14 -137
18 -220 9 -145 9 -151 -13 -195 -13 -25 -25 -52 -28 -61 -3 -9 -31 -23 -64
-33 -32 -10 -85 -31 -118 -46 -54 -25 -99 -45 -160 -69 -11 -5 -41 -18 -66
-30 -25 -11 -53 -21 -62 -21 -9 0 -18 -4 -22 -9 -3 -5 -19 -12 -36 -16 -17 -4
-49 -18 -72 -31 -59 -34 -77 -32 -77 9 0 18 -7 42 -15 53 -8 10 -15 27 -15 37
0 10 -8 20 -17 23 -25 8 -78 31 -173 73 -14 6 -45 15 -70 20 -25 5 -70 17
-100 26 -100 31 -109 30 -198 -15 -78 -40 -82 -44 -82 -75 0 -19 5 -37 10 -40
6 -3 10 -13 10 -22 0 -8 6 -29 14 -46 8 -18 25 -63 37 -102 12 -38 26 -74 31
-80 4 -5 8 -15 8 -23 0 -8 6 -28 14 -45 8 -18 24 -75 36 -129 23 -106 47 -142
103 -153 50 -11 127 -39 127 -47 0 -4 -33 -8 -72 -10 -98 -4 -93 -22 7 -26 44
-2 84 -7 89 -12 6 -6 16 -10 24 -10 12 0 12 3 2 15 -7 9 -10 18 -6 22 7 8 73
6 87 -3 6 -3 36 -12 67 -19 32 -7 66 -16 77 -20 16 -5 34 7 80 54 38 39 68 61
83 61 12 0 33 6 45 14 12 8 36 17 53 20 26 6 32 3 42 -19 13 -29 9 -45 -14
-45 -19 0 -18 -19 1 -25 53 -17 52 -15 31 -30 -20 -15 -63 -11 -106 12 -34 18
-90 17 -90 -1 0 -9 15 -16 43 -19 189 -23 187 -22 187 -52 0 -32 -12 -38 -46
-20 -16 8 -46 15 -67 15 -24 0 -40 5 -43 15 -4 10 -20 15 -45 15 -28 0 -39 -4
-39 -15 0 -10 10 -15 28 -15 16 0 37 -7 48 -15 10 -8 33 -15 49 -15 33 -1 113
-21 132 -33 8 -5 10 -19 6 -37 -3 -17 0 -36 7 -45 6 -8 9 -19 5 -25 -9 -15
-57 -12 -79 5 -11 8 -32 15 -47 15 -15 0 -40 5 -56 11 -35 13 -171 29 -190 22
-25 -10 -13 -32 20 -37 17 -3 82 -12 142 -21 205 -30 240 -36 260 -49 11 -7
41 -16 67 -20 26 -4 50 -11 53 -16 3 -4 31 -16 63 -25 31 -9 71 -23 87 -30 17
-8 65 -24 107 -36 61 -18 78 -27 80 -43 2 -17 14 -22 70 -32 72 -11 95 -6 85
20 -5 12 -20 16 -60 16 -30 0 -57 3 -60 7 -8 8 52 53 71 53 7 0 20 -6 27 -13
16 -17 135 -31 148 -18 20 20 -7 31 -78 31 -66 0 -74 2 -80 21 -12 37 8 43 82
25 37 -9 84 -16 103 -16 20 0 45 -7 57 -15 32 -22 86 -24 91 -3 2 12 -5 19
-25 23 -15 4 -38 11 -51 16 -13 5 -50 9 -82 9 -67 0 -77 13 -26 34 30 13 46
13 117 0 45 -8 88 -19 95 -25 11 -9 15 -7 20 5 13 35 -3 46 -66 46 -62 0 -82
15 -32 25 15 3 40 10 56 15 18 6 35 6 47 0 10 -6 29 -10 43 -10 13 0 31 -7 40
-15 18 -19 66 -20 66 -2 0 13 -40 37 -60 37 -5 0 -21 5 -37 11 -42 16 -11 29
73 29 51 0 75 -4 84 -15 7 -8 17 -12 23 -8 6 4 -3 18 -23 35 -26 21 -31 31
-23 39 9 9 24 8 62 -5 60 -20 125 -22 119 -3 -3 6 -22 13 -44 15 -50 4 -59 14
-34 37 18 16 25 17 54 7 38 -14 126 -16 126 -3 0 12 -26 21 -61 21 -29 0 -38
13 -18 26 22 14 132 4 151 -13 13 -12 22 -13 29 -6 16 16 -7 53 -31 53 -11 0
-20 4 -20 9 0 13 27 21 75 21 38 0 44 3 47 23 3 24 14 25 107 11 34 -5 42 -3
39 7 -3 8 -21 15 -42 17 -54 5 -41 28 15 25 154 -8 237 -12 254 -15 11 -2 22
2 25 7 3 6 -5 11 -17 13 -15 2 -23 10 -23 23 0 24 25 35 43 21 7 -6 33 -13 58
-14 34 -2 44 0 44 12 0 11 -13 16 -47 18 -44 3 -48 5 -48 28 0 17 7 28 20 31
24 6 25 11 5 33 -13 15 -14 19 -1 29 15 13 55 6 135 -24 53 -19 85 -16 89 7 3
15 -4 18 -41 18 -27 0 -49 6 -57 15 -8 10 -30 15 -65 15 -52 0 -85 19 -85 48
0 17 62 15 86 -3 10 -8 28 -15 39 -15 12 0 45 -9 75 -19 56 -20 80 -18 80 4 0
20 -58 45 -104 45 -23 1 -52 7 -66 15 -14 8 -46 14 -72 15 -71 0 -76 31 -6 46
15 4 37 17 50 31 l23 25 -1 351 c0 194 -5 424 -11 512 -5 88 -7 166 -5 173 5
15 52 28 61 16 6 -9 45 -29 116 -58 66 -27 151 -39 285 -39 143 1 264 14 335
36 28 9 77 24 110 33 33 9 64 20 69 25 6 5 15 9 22 9 27 0 158 85 206 134 53
53 104 127 131 186 30 68 57 161 57 197 0 20 5 64 11 98 8 49 7 77 -5 138 -9
42 -16 85 -16 96 0 27 76 85 114 86 17 1 52 2 78 3 37 2 55 9 84 34 30 26 39
30 52 20 30 -21 125 -62 145 -62 8 0 28 -7 43 -15 16 -8 36 -15 44 -15 9 0 20
-4 25 -9 10 -10 170 -68 215 -78 14 -3 34 -12 45 -19 11 -8 27 -14 36 -14 9 0
30 -7 45 -15 16 -8 37 -15 46 -15 9 0 20 -4 23 -10 3 -5 14 -10 23 -10 9 0 30
-7 46 -15 40 -21 100 -36 164 -42 55 -5 92 12 92 44 0 27 -89 102 -161 136
-146 69 -189 88 -221 94 -18 3 -37 9 -43 14 -5 4 -28 10 -50 14 -22 4 -45 11
-50 16 -6 4 -33 15 -60 24 -55 19 -158 62 -227 96 -10 5 -23 9 -29 9 -6 0 -25
6 -42 14 -18 8 -40 16 -49 20 -10 3 -18 15 -18 28 0 43 -11 65 -43 83 -31 18
-84 59 -119 92 -13 11 -18 32 -18 66 0 63 -24 112 -64 133 -17 9 -62 20 -101
26 -89 13 -276 26 -293 20 -7 -2 -15 -16 -18 -31 -4 -14 -11 -34 -16 -44 -9
-17 -11 -17 -33 -3 -13 9 -42 18 -65 22 -22 4 -43 11 -46 15 -3 5 -14 9 -25 9
-11 0 -53 16 -93 35 -40 19 -79 35 -86 35 -36 0 -99 -45 -131 -93 -31 -48 -34
-60 -37 -139 -4 -76 -1 -92 18 -123 13 -21 39 -44 64 -55 45 -21 170 -50 218
-50 35 0 88 -28 88 -48 0 -10 -17 -12 -83 -6 -79 6 -84 5 -114 -20 -68 -57
-63 -111 16 -191 82 -83 115 -98 239 -103 l102 -4 0 -92 c0 -242 -126 -405
-365 -472 -76 -21 -317 -26 -336 -6 -7 6 -19 12 -27 12 -31 0 -117 48 -284
158 l-96 64 1 67 c1 55 -3 73 -21 99 -28 38 -40 41 -277 60 -80 6 -90 9 -92
27 -3 19 56 66 144 115 15 8 45 31 66 50 21 19 47 40 56 45 10 6 42 31 71 57
l52 48 -1 115 c-1 63 -4 122 -7 130 -10 25 5 63 26 70 11 3 32 23 48 42 26 34
27 44 34 182 5 80 11 199 14 264 7 134 -4 178 -57 225 l-30 27 10 123 c9 94 8
127 -1 142 -12 18 -139 60 -184 60 -11 0 -24 4 -30 10 -10 10 -29 15 -164 43
-70 15 -110 32 -110 47 0 16 33 72 59 103 16 17 35 27 53 27 33 0 33 -2 11
-36 -15 -24 -15 -27 4 -52 16 -21 30 -28 65 -30 40 -3 49 1 78 29 28 29 31 38
27 72 l-5 39 56 -5 c32 -3 66 -6 77 -8 15 -3 21 2 23 23 3 22 -2 29 -23 34
-35 9 -144 -3 -161 -17 -10 -8 -27 -8 -63 2 -41 10 -57 10 -91 -1 -58 -19
-113 -76 -129 -133 -15 -52 -26 -64 -44 -49 -7 6 -34 13 -62 17 -27 4 -54 11
-60 15 -5 5 -37 11 -70 15 -33 4 -64 11 -70 15 -5 5 -32 13 -60 19 -97 19
-150 33 -160 41 -5 5 -32 11 -60 15 -27 4 -54 11 -60 15 -5 5 -32 13 -60 18
-27 6 -95 22 -150 36 -55 14 -108 26 -117 26 -10 0 -41 -13 -70 -28 -29 -16
-66 -32 -83 -36 -27 -7 -72 -27 -134 -61 -13 -7 -32 -10 -41 -7 -25 10 -91 92
-84 104 4 6 10 6 17 -1 21 -21 71 -12 105 18 38 35 41 69 9 99 -26 25 -95 30
-115 10 -9 -9 -12 -7 -12 11 0 22 49 81 68 81 11 0 42 44 42 60 0 24 -51 8
-85 -27z m80 -171 c7 -20 -33 -62 -60 -62 -13 0 -27 10 -36 26 -12 24 -12 28
8 43 25 21 79 17 88 -7z m398 -131 c45 -11 102 -24 127 -30 69 -15 133 -33
155 -42 11 -5 38 -13 60 -18 22 -5 84 -21 138 -35 53 -14 106 -26 117 -26 11
0 28 -4 38 -10 9 -5 44 -14 77 -19 106 -17 147 -28 156 -42 9 -13 12 -23 24
-84 6 -28 48 -52 53 -30 2 7 -4 30 -13 51 -21 51 -8 62 47 41 24 -9 66 -20 93
-23 28 -4 55 -10 60 -14 9 -7 44 -16 148 -37 33 -7 35 -20 3 -32 -93 -36 -265
-134 -334 -190 -23 -18 -59 -45 -81 -60 -21 -14 -57 -39 -79 -54 l-40 -28 -44
19 c-62 28 -185 69 -243 81 -27 5 -72 17 -100 25 -154 46 -248 72 -327 91 -31
7 -61 16 -67 19 -5 4 -38 11 -73 16 -82 12 -212 37 -257 50 -20 5 -51 10 -69
10 -18 0 -41 4 -51 9 -10 6 -64 13 -122 16 -103 7 -169 20 -169 34 0 7 56 33
99 46 14 4 53 25 88 46 35 22 66 39 69 39 4 0 40 20 81 45 40 25 78 45 83 45
5 0 35 14 65 30 30 17 61 30 68 30 6 0 35 11 62 24 62 30 59 30 158 7z m1151
-37 c20 -20 20 -19 -6 -44 -29 -26 -88 -28 -88 -2 0 24 36 62 60 62 10 0 26
-7 34 -16z m-1937 -329 c21 -8 74 -19 118 -25 117 -14 258 -36 275 -43 8 -4
44 -11 80 -17 98 -15 313 -60 405 -85 33 -9 78 -21 100 -26 22 -5 72 -18 110
-29 39 -12 88 -26 110 -31 22 -6 49 -14 60 -19 11 -4 67 -22 125 -41 58 -18
109 -36 113 -39 4 -4 9 -121 11 -261 1 -140 8 -315 14 -389 18 -229 27 -603
14 -627 -12 -21 -13 -21 -56 -4 -25 9 -48 20 -52 24 -4 4 -14 7 -23 7 -9 0
-28 6 -42 14 -14 7 -43 16 -65 20 -21 5 -43 11 -49 16 -5 4 -37 11 -69 15 -33
4 -66 11 -75 15 -9 5 -43 16 -76 25 -93 26 -146 42 -200 58 -27 9 -69 19 -93
23 -23 4 -45 11 -48 15 -3 5 -13 9 -23 9 -10 0 -41 6 -67 14 -49 14 -107 29
-174 46 -37 9 -112 35 -145 50 -11 5 -48 18 -83 29 -34 12 -70 25 -80 30 -9 5
-25 12 -34 15 -14 4 -18 24 -22 133 -7 202 -23 364 -40 417 -9 27 -16 69 -16
94 0 25 -5 61 -10 81 -6 20 -14 99 -19 176 -6 77 -15 175 -21 218 -10 72 -9
107 4 107 3 0 23 -7 43 -15z m2124 -115 l-6 -95 -46 -6 c-25 -4 -73 -24 -110
-46 -35 -21 -99 -56 -142 -77 -75 -38 -78 -40 -92 -89 -12 -40 -15 -110 -15
-324 0 -242 2 -277 17 -301 23 -36 32 -42 71 -42 17 0 32 -4 32 -10 0 -5 9
-10 19 -10 11 0 23 5 26 10 3 6 13 10 22 10 8 0 42 16 74 36 62 37 91 41 97
11 3 -12 -4 -20 -19 -24 l-23 -6 22 -8 c33 -12 28 -39 -7 -39 -16 0 -31 -6
-35 -15 -3 -8 -14 -15 -24 -15 -11 0 -25 -7 -32 -15 -14 -17 -55 -17 -55 0 0
6 10 11 23 13 31 5 29 32 -3 32 -14 0 -25 -4 -25 -9 0 -5 -20 -19 -45 -31 -25
-12 -45 -26 -45 -30 0 -5 11 -21 24 -35 26 -28 53 -28 76 0 7 8 20 15 30 15
10 0 23 7 30 15 7 8 19 15 27 15 7 0 27 10 42 21 37 27 51 18 51 -33 0 -46
-12 -60 -150 -167 -47 -36 -86 -69 -88 -73 -2 -5 -10 -8 -17 -8 -14 0 -108
-75 -180 -142 -22 -21 -44 -38 -48 -38 -5 0 -6 66 -2 148 4 102 1 213 -11 362
-9 118 -19 337 -21 486 l-5 271 64 41 c83 54 148 99 173 121 23 21 172 111
183 111 4 0 31 15 59 34 59 39 75 46 84 37 4 -3 4 -49 0 -101z m-2207 -82 c9
-44 16 -104 25 -223 5 -66 14 -146 21 -178 10 -43 10 -61 2 -69 -8 -8 -13 -6
-18 8 -4 10 -13 34 -20 53 -8 18 -14 65 -14 104 0 73 -24 214 -43 255 -8 16
-7 28 3 47 17 31 38 32 44 3z m2234 -74 c29 -20 28 -44 -1 -44 -13 0 -32 -7
-43 -15 -10 -8 -29 -15 -41 -15 -13 0 -23 -4 -23 -10 0 -5 -12 -13 -26 -16
-15 -4 -50 -20 -80 -35 -33 -18 -69 -29 -94 -29 -41 0 -57 -21 -25 -34 19 -7
19 -55 0 -80 -12 -16 -15 -52 -14 -165 0 -80 4 -164 8 -186 11 -50 11 -53 20
148 5 103 12 172 20 180 6 6 11 25 11 42 0 16 4 35 8 40 6 9 63 39 122 63 88
37 126 56 135 67 15 18 53 25 64 11 7 -8 7 -54 1 -131 -5 -66 -10 -173 -10
-238 0 -162 -4 -168 -173 -249 -27 -13 -67 -33 -90 -45 -48 -25 -109 -29 -126
-9 -8 10 -14 103 -18 292 -5 237 -4 278 8 288 9 6 18 18 21 26 3 8 58 42 122
75 64 33 116 63 116 66 0 21 80 23 108 3z m745 -467 c18 -8 38 -21 46 -30 8
-11 22 -15 36 -11 21 5 110 -17 147 -37 10 -5 23 -9 29 -9 34 0 139 -69 139
-92 0 -11 -50 1 -75 18 -11 8 -26 14 -35 14 -8 0 -28 7 -44 15 -35 19 -76 19
-76 2 0 -15 94 -59 119 -55 9 1 27 -4 40 -11 13 -7 34 -11 47 -8 16 3 24 0 24
-10 0 -7 7 -16 15 -19 8 -4 15 -16 15 -29 0 -30 -28 -95 -40 -95 -6 0 -10 -12
-10 -27 0 -55 -12 -59 -82 -30 -35 15 -69 27 -77 27 -8 0 -22 6 -30 14 -16 13
-84 31 -170 44 -25 4 -46 13 -49 20 -2 6 2 12 8 12 20 0 82 53 106 92 28 44
35 148 10 148 -9 0 -15 -16 -18 -49 -3 -31 -13 -57 -26 -72 -12 -12 -32 -37
-44 -54 -14 -21 -36 -36 -66 -45 -44 -13 -46 -13 -69 14 -19 22 -23 38 -23 91
0 35 4 66 9 69 5 3 12 17 15 31 9 36 52 75 94 84 1 1 17 -5 35 -12z m607 -32
c134 -14 150 -36 158 -217 4 -115 3 -134 -18 -195 -29 -86 -82 -171 -116 -183
-20 -8 -31 -6 -51 10 -31 24 -53 25 -118 2 -80 -29 -113 -50 -117 -74 -3 -21
-9 -23 -76 -26 -47 -2 -83 2 -105 11 -17 8 -40 17 -49 21 -39 12 -14 25 50 24
43 0 78 6 97 16 17 9 33 16 38 16 16 0 124 81 165 124 43 45 102 143 102 169
0 8 7 29 16 47 27 53 14 142 -27 194 -18 22 -37 43 -41 44 -17 7 -8 33 10 28
9 -2 46 -7 82 -11z m-155 -17 c108 -74 116 -224 19 -369 -65 -98 -108 -132
-247 -192 -47 -21 -110 -22 -127 -2 -7 8 -17 15 -23 15 -15 0 -77 61 -77 75 0
7 9 20 19 29 23 20 56 9 66 -23 12 -38 161 -38 236 0 95 47 156 173 150 306
-1 32 -39 80 -89 113 -24 16 -30 55 -9 63 26 11 52 6 82 -15z m405 -247 c6
-12 7 -45 3 -83 -6 -64 -36 -130 -88 -193 -21 -25 -25 -27 -31 -12 -4 11 0 25
10 36 9 10 16 24 16 32 0 8 6 23 14 34 7 11 19 54 25 95 15 94 20 110 31 110
5 0 14 -9 20 -19z m83 -97 c-6 -85 -78 -203 -106 -175 -7 7 -6 16 4 28 31 39
49 83 49 121 0 41 22 76 44 69 6 -2 10 -21 9 -43z m75 -73 c30 -14 85 -39 137
-61 28 -11 58 -25 67 -30 10 -6 23 -10 29 -10 10 0 67 -24 120 -51 9 -4 34
-11 55 -15 22 -3 44 -10 49 -14 6 -4 26 -11 45 -15 19 -4 40 -11 45 -14 6 -4
33 -16 60 -26 81 -29 150 -62 163 -78 28 -33 -13 -60 -56 -38 -9 5 -46 20 -82
32 -36 13 -76 29 -90 36 -14 7 -33 13 -42 13 -9 0 -19 4 -22 9 -4 5 -24 12
-46 16 -22 4 -42 10 -45 15 -3 4 -22 11 -42 15 -21 4 -42 11 -48 15 -5 5 -39
18 -75 30 -36 12 -79 28 -97 36 -17 8 -38 14 -46 14 -9 0 -18 4 -22 9 -3 5
-30 17 -61 26 -62 18 -74 34 -50 70 18 27 27 30 54 16z m-738 -16 c18 -21 -2
-27 -91 -23 -79 3 -96 19 -32 29 70 11 110 9 123 -6z m-2780 -167 c0 -6 -12
-22 -26 -35 -14 -13 -24 -26 -21 -29 3 -3 19 8 36 25 31 30 71 42 71 20 0 -5
-14 -23 -31 -38 -19 -18 -27 -31 -20 -35 6 -4 29 11 50 33 46 47 61 51 61 16
0 -14 -5 -25 -11 -25 -11 0 -48 -40 -49 -52 0 -18 22 -5 63 37 25 25 52 45 60
45 30 0 28 -20 -5 -50 -22 -20 -29 -33 -22 -40 7 -7 21 1 44 25 33 34 80 48
80 23 0 -7 -16 -24 -35 -37 -34 -23 -41 -41 -19 -48 5 -1 31 18 59 42 27 25
56 45 63 45 27 0 23 -30 -8 -62 -48 -47 -18 -47 36 1 51 45 62 49 70 26 6 -14
-29 -55 -45 -55 -3 0 -12 -14 -19 -30 -14 -30 -15 -30 -65 -24 -29 3 -65 12
-81 20 -16 8 -39 14 -50 14 -12 0 -33 6 -47 14 -15 7 -60 24 -100 36 -41 12
-78 26 -84 31 -12 12 -55 12 -55 0 0 -12 67 -51 87 -51 15 0 28 -6 110 -48 23
-12 53 -22 65 -22 13 0 28 -4 34 -10 9 -9 68 -21 194 -39 30 -4 69 -15 85 -24
17 -9 38 -17 48 -17 9 0 17 -4 17 -9 0 -5 16 -12 36 -16 37 -7 44 -9 102 -38
19 -10 59 -20 90 -23 31 -4 62 -10 67 -15 6 -4 34 -11 63 -15 28 -3 52 -9 52
-13 0 -4 17 -15 38 -25 20 -10 49 -25 64 -32 14 -8 40 -14 57 -14 17 0 50 -9
73 -19 24 -11 62 -25 86 -32 48 -14 48 -16 43 -159 -2 -47 3 -92 12 -120 11
-30 18 -108 23 -235 3 -104 10 -194 14 -200 16 -23 31 -198 38 -457 7 -230 11
-280 24 -295 49 -56 21 -92 -43 -55 -21 12 -47 22 -58 22 -11 0 -23 5 -26 10
-3 6 -17 10 -29 10 -23 0 -128 31 -162 48 -11 5 -34 16 -52 25 -19 9 -38 17
-43 17 -6 0 -31 9 -57 21 -26 11 -60 26 -77 34 -16 7 -52 20 -80 29 -47 16
-234 104 -245 116 -21 23 -137 70 -172 70 -16 0 -226 67 -248 79 -9 5 -30 12
-48 15 -17 4 -34 12 -37 17 -4 5 -17 9 -30 9 -39 0 -48 30 -40 144 5 77 3 117
-9 169 -9 38 -19 134 -22 215 -4 81 -10 154 -15 162 -10 20 -16 147 -7 155 4
4 16 4 27 0 18 -5 21 -14 21 -66 l0 -59 43 0 c36 0 46 4 57 25 10 19 11 30 2
50 -19 42 -15 65 11 65 12 0 29 4 37 10 23 14 30 -7 30 -97 0 -45 5 -94 10
-109 17 -44 16 -375 -1 -402 -8 -12 -17 -22 -21 -22 -36 0 -72 -97 -61 -164 7
-43 54 -89 87 -84 27 4 28 32 1 36 -35 7 -45 23 -45 74 0 81 38 132 70 93 7
-8 20 -15 29 -15 10 0 26 -7 37 -15 10 -8 28 -15 39 -15 11 0 37 -9 58 -20 20
-11 43 -20 51 -20 8 0 27 -6 43 -14 15 -8 46 -22 68 -31 22 -9 48 -20 57 -25
10 -6 29 -10 43 -10 14 0 42 -9 62 -20 21 -11 50 -20 65 -20 16 0 28 -4 28 -9
0 -4 30 -18 68 -30 37 -12 77 -27 90 -34 12 -6 44 -11 70 -11 l47 -1 3 123 c1
67 -2 130 -7 141 -7 13 -5 29 11 59 16 34 25 42 47 42 16 -1 33 -10 45 -27
l19 -26 -27 -24 c-29 -25 -38 -75 -18 -95 16 -16 77 18 88 49 l9 25 32 -29
c25 -23 32 -38 35 -73 2 -37 6 -45 23 -45 17 0 20 7 20 50 -1 60 -27 103 -68
112 -15 3 -36 17 -45 31 -38 56 -73 82 -111 82 -30 0 -44 8 -75 39 -21 22 -35
44 -32 50 4 6 2 19 -3 29 -6 11 -6 23 -1 28 5 5 6 31 2 59 -7 42 -11 50 -27
47 -106 -15 -155 -6 -155 30 0 6 -8 17 -17 24 -17 12 -17 13 0 19 17 7 22 40
11 82 -5 19 -9 20 -35 11 -21 -7 -33 -7 -44 2 -22 18 -9 30 31 30 57 0 35 24
-29 32 -31 4 -66 12 -76 18 -11 5 -31 10 -44 10 -14 0 -30 7 -37 15 -7 8 -20
15 -29 15 -9 0 -25 6 -36 13 -20 14 -82 34 -145 48 -46 10 -104 32 -121 46 -8
6 -23 12 -34 15 -16 2 -21 12 -23 46 -3 40 -2 42 25 42 15 0 42 -9 58 -20 17
-11 39 -20 50 -20 11 0 29 -7 39 -15 11 -8 28 -15 38 -15 10 0 26 -4 36 -9 9
-5 44 -19 77 -31 33 -12 74 -28 92 -36 17 -8 45 -14 62 -14 17 0 31 -4 31 -9
0 -5 30 -12 68 -16 90 -9 114 -25 110 -73 -2 -30 -8 -38 -25 -40 -30 -4 -29
-16 2 -30 15 -7 25 -20 25 -33 0 -21 39 -61 52 -52 5 2 8 12 8 23 0 28 32 35
49 11 7 -12 24 -21 36 -21 28 0 40 -27 23 -48 -8 -9 -12 -35 -10 -67 2 -29 0
-55 -5 -58 -4 -3 -6 -28 -5 -56 3 -40 8 -52 24 -57 11 -3 23 -3 26 1 4 4 10
88 13 188 4 100 10 194 14 208 9 33 -30 79 -67 79 -38 0 -39 9 -6 42 27 27 29
32 18 53 -19 36 -7 55 37 55 27 -1 48 -9 72 -30 36 -31 51 -31 51 0 0 47 -134
77 -196 45 -16 -8 -36 -15 -45 -15 -17 0 -50 -29 -85 -75 -21 -27 -23 -28 -68
-16 -26 6 -52 9 -57 5 -6 -3 -18 1 -27 9 -9 8 -39 19 -67 23 -27 4 -55 13 -63
20 -7 8 -27 14 -43 14 -16 0 -29 4 -29 9 0 5 -15 13 -32 16 -18 4 -37 11 -43
15 -5 4 -25 10 -43 13 -18 4 -40 14 -48 22 -9 8 -31 15 -50 15 -19 0 -34 4
-34 8 0 4 -26 16 -57 26 l-58 17 -18 -23 c-19 -23 -19 -34 2 -132 13 -59 9
-67 -30 -59 -20 4 -35 0 -47 -11 -13 -11 -35 -15 -81 -13 -73 2 -68 -7 -75
152 -3 61 -12 182 -20 270 -8 94 -11 161 -5 163 5 2 9 13 9 25 0 12 20 39 46
64 43 40 64 47 64 21z m3056 -25 c3 -10 10 -28 16 -39 21 -44 8 -59 -57 -62
-33 -2 -65 -8 -72 -14 -20 -17 -53 18 -53 57 0 27 6 34 43 53 53 27 115 29
123 5z m-3256 -23 c6 -23 7 -24 17 -6 5 10 16 17 23 14 9 -3 8 -8 -5 -21 -13
-13 -16 -27 -11 -52 20 -113 20 -109 1 -102 -9 4 -21 7 -26 7 -5 0 -9 30 -9
66 0 48 -3 65 -12 61 -9 -2 -13 -25 -13 -66 -1 -36 -6 -65 -12 -69 -15 -9 -55
-8 -71 2 -17 10 -16 165 1 170 6 2 26 8 42 14 46 16 68 10 75 -18z m-165 -87
c-1 -49 -3 -91 -4 -95 -2 -13 -65 -8 -84 7 -11 7 -24 37 -31 67 -7 35 -17 53
-26 53 -20 0 -18 -61 3 -104 l16 -31 -36 -15 c-19 -8 -50 -15 -68 -15 -27 0
-35 6 -48 33 -8 17 -17 53 -20 79 l-4 48 36 6 c20 4 41 10 47 15 6 5 28 8 50
7 21 0 57 6 79 15 22 9 52 16 66 17 l27 0 -3 -87z m872 -10 c2 -6 -10 -19 -26
-29 -32 -19 -41 -44 -16 -44 7 0 18 7 23 16 13 23 56 14 60 -12 3 -19 8 -21
43 -17 37 5 39 4 39 -21 0 -29 20 -35 40 -11 7 8 25 15 41 15 29 0 46 -14 29
-25 -16 -10 -12 -35 6 -35 9 0 22 6 28 14 6 8 21 17 34 21 18 5 22 2 22 -14 0
-12 -4 -21 -10 -21 -5 0 -10 -7 -10 -15 0 -23 12 -18 55 26 42 42 80 58 96 42
14 -14 0 -43 -27 -54 -13 -4 -24 -16 -24 -25 0 -11 5 -14 16 -10 9 3 20 6 25
6 5 0 9 5 9 10 0 17 39 50 60 50 28 0 25 -25 -5 -38 -15 -7 -25 -20 -25 -32 0
-28 17 -25 47 10 22 27 30 30 85 30 41 0 64 5 76 16 14 15 17 15 28 -1 14 -19
45 -17 52 3 2 7 -6 12 -22 12 -37 0 -32 16 9 36 35 16 63 12 35 -6 -28 -18 1
-23 35 -7 32 15 36 15 42 1 7 -18 -23 -42 -113 -89 -17 -9 -44 -29 -59 -45
-24 -25 -26 -30 -12 -36 10 -4 38 11 76 40 33 25 62 46 66 46 3 0 18 13 33 28
36 38 87 59 106 43 8 -6 19 -10 26 -9 25 6 21 -22 -4 -32 -14 -5 -26 -14 -26
-19 0 -4 -12 -11 -27 -14 -32 -6 -102 -57 -103 -73 0 -19 28 -24 44 -9 8 8 19
15 25 15 6 0 25 16 42 35 18 19 41 35 51 35 11 0 32 14 47 31 23 25 35 30 62
27 54 -5 51 -37 -6 -67 -25 -13 -45 -27 -45 -31 0 -3 -20 -16 -44 -28 -24 -12
-49 -29 -56 -37 -7 -8 -17 -15 -21 -15 -5 0 -33 -16 -61 -36 -39 -26 -59 -34
-78 -29 -14 3 -44 8 -68 12 -23 3 -45 10 -48 14 -3 5 -15 9 -26 9 -35 0 -130
33 -135 47 -3 7 -11 13 -19 13 -8 0 -31 9 -51 20 -21 11 -48 20 -60 20 -13 0
-31 4 -41 9 -9 5 -39 13 -67 19 -100 20 -225 63 -297 103 -10 5 -30 9 -45 10
-16 0 -37 4 -48 8 -16 6 -17 9 -4 17 8 5 25 26 39 46 30 45 68 60 77 31z
m-1197 -47 c0 -30 4 -56 10 -58 5 -1 11 -14 12 -28 3 -22 -1 -25 -35 -28 -31
-3 -39 1 -47 20 -11 26 -32 60 -41 68 -3 3 -11 14 -17 25 -9 17 -6 22 21 37
18 9 47 17 65 18 l32 0 0 -54z m1330 34 c19 -3 45 -12 57 -18 12 -7 35 -12 52
-12 35 0 61 -9 61 -21 0 -27 -183 6 -224 40 -21 18 -21 35 2 26 9 -4 33 -11
52 -15z m2445 -75 l0 -70 -78 -3 c-50 -2 -84 1 -93 9 -20 16 -18 93 2 110 18
15 84 28 134 25 l35 -1 0 -70z m1283 48 c4 -25 -16 -31 -36 -11 -20 20 -14 40
11 36 14 -2 23 -11 25 -25z m-5197 -35 c10 -13 18 -29 19 -36 0 -7 7 -15 15
-18 20 -8 19 -60 -1 -68 -25 -10 -44 -7 -44 7 -1 16 -29 48 -62 70 -16 9 -28
22 -28 27 0 10 48 37 68 39 8 1 22 -9 33 -21z m-82 -85 c30 -19 41 -33 41 -52
0 -32 -37 -71 -66 -71 -13 0 -27 -7 -32 -16 -7 -13 -16 -15 -38 -9 -16 4 -51
8 -77 9 -42 1 -47 3 -45 21 2 11 12 21 23 23 11 1 31 5 45 8 24 6 25 6 5 20
-19 14 -19 16 24 54 25 22 52 40 62 40 9 0 36 -12 58 -27z m2611 -57 c0 -13 2
-30 5 -38 3 -8 -20 -28 -65 -53 -57 -33 -78 -53 -120 -112 -52 -76 -65 -128
-35 -140 14 -5 14 -7 0 -23 -20 -22 -10 -30 37 -30 27 0 38 -4 38 -15 0 -10
-10 -15 -29 -15 -29 0 -49 -15 -37 -28 4 -3 27 -5 51 -3 30 1 51 -3 61 -14 8
-8 28 -15 44 -15 33 0 49 -18 29 -31 -8 -5 -27 -9 -42 -9 -16 0 -26 -4 -22
-10 3 -5 20 -10 37 -10 26 0 30 -3 25 -22 -4 -12 -1 -28 6 -36 15 -19 -15 -42
-54 -42 -31 0 -44 -13 -35 -37 6 -14 9 -14 31 1 30 20 51 20 59 1 11 -29 -5
-45 -44 -45 -41 0 -59 -13 -38 -26 7 -5 29 -8 48 -9 33 0 35 -2 41 -45 10 -71
21 -784 12 -796 -4 -5 -30 -18 -56 -28 -26 -10 -73 -40 -105 -67 -60 -51 -76
-51 -78 -1 -1 15 -7 45 -13 67 -6 24 -11 155 -11 330 0 160 -4 295 -9 300 -13
15 -30 168 -42 369 -5 98 -14 186 -19 195 -4 9 -10 68 -11 131 l-3 114 44 23
c47 25 113 72 118 85 2 4 10 8 17 8 8 0 20 6 27 13 7 6 30 23 50 37 21 14 38
31 38 38 0 6 11 12 25 12 20 0 25 -5 25 -24z m1382 -22 c-4 -49 -36 -119 -58
-128 -10 -4 -24 0 -34 9 -10 9 -41 18 -70 22 -60 7 -68 18 -50 76 7 23 14 47
15 53 2 8 36 10 102 9 l98 -3 -3 -38z m-4065 -124 c44 -23 83 -82 83 -124 0
-21 -11 -48 -30 -74 -27 -38 -32 -72 -9 -72 5 0 61 -51 124 -114 113 -112 185
-201 185 -230 0 -7 30 -32 68 -54 37 -22 88 -64 115 -92 44 -49 50 -52 80 -45
72 17 90 7 138 -82 29 -52 20 -88 -29 -116 l-33 -19 2 51 c3 70 -24 101 -92
101 -91 0 -139 -36 -139 -104 0 -35 5 -46 30 -64 16 -12 36 -22 45 -22 9 0 15
-9 15 -23 0 -18 -10 -26 -50 -40 -47 -17 -51 -17 -75 -1 -29 19 -55 63 -55 91
0 10 9 29 20 43 30 39 25 70 -17 107 -21 18 -42 33 -48 33 -5 0 -39 34 -75 76
-36 42 -94 106 -130 142 -61 64 -80 88 -96 122 -10 20 -63 89 -89 116 -28 29
-78 44 -146 44 -145 0 -219 46 -219 135 0 47 26 115 44 115 6 0 20 -28 30 -63
19 -64 58 -117 85 -117 9 0 25 -7 35 -15 41 -31 129 -15 195 36 29 23 61 81
61 112 0 46 -87 137 -132 137 -15 0 -30 5 -34 11 -20 33 80 33 143 -1z m2731
8 c14 -12 16 -38 2 -38 -14 0 -98 -88 -105 -111 -4 -10 -11 -19 -16 -19 -5 0
-9 -16 -9 -35 0 -23 -5 -35 -14 -35 -24 0 -76 53 -76 78 0 21 46 92 87 135 39
41 97 52 131 25z m1174 -22 c26 -4 50 -11 53 -17 4 -5 17 -9 31 -9 33 0 31
-25 -8 -84 -41 -61 -62 -75 -85 -58 -10 7 -30 17 -45 23 -16 6 -28 15 -28 20
0 5 -7 9 -16 9 -9 0 -27 10 -39 22 l-24 23 22 35 c11 19 30 43 41 53 16 15 21
15 35 3 9 -7 37 -17 63 -20z m-4066 -11 c4 -8 14 -15 24 -15 9 0 28 -9 42 -19
20 -16 24 -28 23 -73 l0 -53 -64 -5 c-87 -7 -96 -30 -12 -30 67 0 77 -11 31
-35 -50 -26 -84 -20 -115 21 -24 32 -26 40 -18 82 l8 47 50 3 c28 1 60 5 73 7
40 9 13 25 -43 25 -59 0 -67 5 -58 38 6 26 50 31 59 7z m2984 -37 c22 -13 41
-30 42 -38 2 -8 -13 -31 -33 -51 -43 -43 -79 -114 -79 -157 0 -41 -16 -41 -75
0 -79 56 -73 93 40 214 28 30 54 54 58 54 4 0 26 -10 47 -22z m922 -73 c10
-14 48 -38 83 -54 34 -16 65 -33 68 -38 7 -11 -116 -103 -138 -103 -8 0 -43
26 -75 58 -73 70 -77 95 -22 134 46 34 59 34 84 3z m-1800 -8 c7 -34 -1 -47
-27 -47 -35 0 -40 18 -14 46 28 30 35 30 41 1z m-752 -17 c0 -20 -5 -30 -15
-30 -10 0 -15 10 -15 30 0 20 5 30 15 30 10 0 15 -10 15 -30z m1772 7 c33 -21
36 -25 25 -44 -52 -89 -57 -104 -57 -162 0 -33 -4 -62 -8 -65 -5 -3 -21 2 -36
10 -16 7 -34 14 -41 14 -7 0 -24 9 -39 21 -32 25 -35 75 -6 109 11 13 20 29
20 37 0 21 72 103 90 103 8 0 32 -11 52 -23z m-1708 -16 c7 -10 -22 -37 -30
-28 -9 8 3 37 15 37 5 0 12 -4 15 -9z m116 -36 c0 -9 9 -15 24 -15 32 0 40
-14 24 -40 -19 -31 -54 -23 -50 13 2 19 -2 27 -13 27 -13 0 -15 -6 -10 -29 9
-40 -18 -49 -51 -16 -27 27 -24 45 6 45 11 0 25 7 32 15 17 19 38 19 38 0z
m2218 -17 c3 -25 45 -71 101 -110 23 -16 21 -38 -3 -38 -8 0 -27 -7 -42 -15
-39 -20 -78 -19 -96 3 -15 18 -48 84 -48 98 0 4 -7 16 -17 26 -15 17 -15 19 1
37 19 20 46 30 81 27 14 -1 21 -9 23 -28z m-503 12 c3 -5 15 -10 26 -10 26 0
37 -30 16 -42 -14 -7 -17 -25 -17 -88 0 -46 5 -82 11 -86 26 -16 -12 -26 -74
-19 -80 9 -94 26 -77 95 6 25 14 56 17 70 14 59 79 111 98 80z m-1881 -42 c6
-20 24 -46 40 -59 60 -50 66 -59 66 -94 0 -28 -5 -38 -25 -47 -32 -14 -40 -6
-38 42 1 22 -4 43 -12 50 -19 15 -29 -4 -20 -38 4 -15 7 -74 6 -132 -1 -107 7
-196 17 -185 6 6 23 98 24 133 0 31 38 31 38 -1 0 -14 12 -32 31 -46 35 -26
37 -63 3 -66 -12 -1 -29 -9 -39 -18 -9 -9 -23 -17 -32 -17 -18 0 -52 -39 -53
-60 0 -9 -6 -4 -13 10 -10 18 -12 70 -10 194 2 133 -1 174 -12 197 -15 29 -21
159 -8 173 13 13 27 0 37 -36z m751 14 c70 -24 75 -29 75 -65 0 -51 -11 -60
-56 -48 -21 5 -51 13 -66 16 -26 5 -28 9 -28 54 0 68 2 69 75 43z m1275 -6
c41 -12 45 -16 42 -42 -3 -45 17 -126 35 -139 26 -20 7 -32 -59 -38 -88 -8
-98 3 -98 105 0 60 4 85 18 103 9 14 17 24 17 25 0 0 20 -6 45 -14z m210 -5
c0 -11 4 -22 9 -25 5 -3 12 -17 15 -32 4 -14 18 -44 32 -66 29 -46 23 -58 -33
-58 -17 0 -35 -4 -38 -10 -3 -5 -21 -10 -38 -10 -27 0 -34 6 -49 38 -9 20 -19
63 -22 95 -5 58 -4 59 27 72 18 8 47 14 65 15 25 0 32 -4 32 -19z m-2432 -26
c-2 -14 -7 -26 -13 -26 -5 0 -11 12 -13 26 -2 18 1 25 13 25 12 0 15 -7 13
-25z m563 -15 c12 0 40 -8 61 -17 43 -19 49 -42 17 -74 -22 -22 -35 -17 -41
16 -2 15 -12 21 -41 23 -21 2 -44 -2 -52 -8 -9 -8 -22 -6 -49 7 -29 13 -36 22
-36 45 0 41 33 51 82 27 21 -11 47 -19 59 -19z m-1186 -71 c22 -11 61 -41 87
-66 39 -39 49 -56 63 -113 9 -37 15 -81 13 -96 -4 -40 -39 -44 -80 -9 -18 15
-42 31 -55 36 -24 9 -31 33 -13 44 16 10 11 58 -8 81 -10 12 -29 25 -43 28
-69 20 -161 88 -152 113 9 22 134 10 188 -18z m1019 -1 c22 -6 45 -15 51 -20
12 -11 42 -10 47 1 2 5 18 6 36 4 l32 -5 -25 -24 c-25 -23 -34 -64 -14 -64 6
0 13 9 16 20 8 30 39 21 35 -10 -1 -13 -8 -28 -15 -32 -9 -5 -8 -14 5 -36 l18
-30 -28 -5 c-36 -7 -52 8 -53 52 l-1 36 -8 -35 c-4 -19 -11 -43 -15 -52 -5
-14 -2 -18 14 -18 25 0 27 -12 5 -31 -8 -7 -13 -21 -11 -31 3 -10 2 -18 -1
-19 -4 0 -25 -1 -47 -2 -34 -2 -40 1 -45 23 -4 16 -14 26 -28 28 -13 2 -24 13
-28 28 -3 13 -12 24 -20 24 -8 0 -14 7 -14 15 0 9 -7 18 -15 21 -24 10 -18 24
15 35 29 11 30 13 30 75 0 70 0 70 64 52z m354 -20 c-2 -16 -9 -22 -23 -21
-10 1 -25 -7 -33 -18 -14 -21 -32 -17 -32 7 0 8 7 14 15 14 8 0 19 9 25 20 15
29 52 27 48 -2z m-1908 -28 c46 25 67 -14 31 -57 -26 -31 -49 -29 -64 5 -6 15
-18 32 -26 38 -8 6 -11 16 -7 23 6 9 12 8 26 -4 15 -13 23 -14 40 -5z m1797
-32 c11 -13 26 -33 32 -45 13 -25 40 -30 60 -10 11 10 12 7 7 -16 -6 -25 -4
-28 13 -22 11 3 33 -1 49 -9 16 -8 39 -12 50 -9 12 3 30 2 39 -2 17 -6 17 -7
-1 -20 -29 -21 -15 -90 28 -137 l34 -36 -50 -7 c-28 -4 -52 -13 -55 -21 -3 -8
-12 -14 -21 -14 -9 0 -31 -15 -50 -32 l-33 -33 -20 24 c-27 33 -24 52 16 98
41 48 44 63 12 63 -30 0 -40 10 -26 27 16 18 49 16 71 -4 23 -21 23 -72 1 -89
-10 -7 -15 -16 -10 -20 12 -12 57 38 57 64 0 34 -30 80 -56 85 -37 7 -85 -5
-91 -22 -2 -9 -9 -24 -14 -33 -12 -23 -12 -55 1 -63 15 -9 12 -45 -4 -45 -7 0
-19 -6 -26 -14 -6 -8 -18 -12 -26 -9 -7 3 -17 -2 -20 -11 -10 -25 -34 -19 -34
8 0 30 16 41 52 37 14 -1 29 3 33 8 10 17 -23 25 -49 13 -18 -8 -27 -7 -39 5
-12 12 -19 13 -37 3 -12 -6 -28 -9 -36 -6 -16 6 -19 36 -4 36 5 0 21 21 36 46
25 43 28 45 41 28 7 -10 13 -28 13 -41 0 -24 34 -50 45 -33 8 14 -3 30 -21 30
-8 0 -14 4 -14 9 0 22 13 41 29 41 9 0 29 13 44 30 27 28 27 30 12 54 -9 13
-27 27 -41 30 -26 7 -47 46 -38 71 8 20 17 19 41 -7z m-1687 -41 c0 -7 15 -35
33 -63 32 -51 33 -53 24 -120 -11 -83 1 -141 41 -185 37 -42 97 -50 146 -20
44 27 58 23 120 -36 l50 -46 -26 -22 c-21 -18 -42 -23 -129 -28 -123 -7 -170
0 -225 36 -118 74 -156 189 -125 372 9 55 18 76 43 102 30 31 48 35 48 10z
m1984 -160 c-9 -25 -34 -21 -34 6 0 13 3 27 7 31 11 11 34 -19 27 -37z m-1832
-92 c-2 -33 -7 -64 -12 -68 -11 -12 -40 51 -40 88 0 38 7 47 35 43 18 -3 20
-9 17 -63z m1292 15 c14 -5 26 -16 26 -24 0 -7 9 -16 21 -19 17 -5 20 -12 17
-44 -3 -42 -32 -59 -42 -25 -6 16 -14 18 -56 14 -46 -4 -50 -3 -62 22 -14 31
-1 46 40 46 15 0 22 6 22 20 0 23 0 23 34 10z m-1204 -52 c24 -26 25 -35 6
-54 -20 -19 -23 -18 -41 16 -30 57 -7 83 35 38z m1800 5 c0 -22 -38 -83 -51
-83 -9 0 -33 -7 -53 -15 -42 -18 -70 -10 -41 11 11 8 16 21 12 34 -4 17 -2 20
13 15 10 -3 21 -1 25 5 3 5 17 10 31 10 14 0 27 7 30 15 6 15 34 22 34 8z
m-690 -68 c7 -8 23 -15 36 -15 33 0 109 -26 177 -61 31 -16 68 -29 81 -29 13
0 29 -7 36 -15 7 -8 25 -15 40 -15 15 0 33 -6 39 -14 6 -8 24 -16 39 -19 117
-23 163 -35 174 -44 7 -6 24 -13 38 -15 34 -4 38 -35 6 -49 -20 -10 -30 -9
-50 5 -14 9 -30 16 -37 16 -6 0 -25 6 -42 13 -62 26 -102 40 -137 45 -19 2
-40 11 -48 18 -7 8 -26 14 -41 14 -16 0 -34 7 -41 15 -7 8 -22 15 -34 15 -12
0 -31 7 -42 15 -10 8 -28 15 -40 15 -11 0 -29 7 -40 15 -10 8 -29 15 -40 15
-12 0 -27 7 -34 15 -7 9 -29 15 -55 15 -44 0 -84 28 -70 49 9 16 71 13 85 -4z
m290 -15 c14 -17 34 -30 47 -30 14 0 23 -6 23 -15 0 -19 24 -20 39 -1 7 8 32
13 67 13 l55 0 -6 -28 c-5 -22 -3 -29 9 -29 9 0 16 7 16 15 0 8 7 15 15 15 8
0 15 -7 15 -15 0 -8 -7 -15 -15 -15 -8 0 -15 -7 -15 -15 0 -18 55 -21 65 -4 4
5 18 15 32 20 35 13 53 -5 53 -53 0 -35 -2 -39 -22 -36 -18 2 -22 9 -20 28 2
19 0 22 -10 12 -17 -17 -87 -16 -94 2 -3 8 -18 14 -32 14 -26 0 -222 61 -259
81 -10 5 -26 12 -35 15 -26 8 -22 23 10 39 37 20 34 21 62 -13z m100 -5 c0
-16 -6 -25 -15 -25 -9 0 -15 9 -15 25 0 16 6 25 15 25 9 0 15 -9 15 -25z m254
-21 c17 -7 21 -29 7 -38 -16 -10 -41 5 -41 25 0 20 8 23 34 13z m-945 -235
c41 -13 77 -27 142 -58 25 -11 51 -21 58 -21 6 0 19 -4 29 -9 9 -5 35 -13 57
-18 34 -7 40 -12 43 -37 2 -16 -1 -33 -7 -39 -14 -14 -14 -107 -1 -107 6 0 10
-9 10 -21 0 -15 -5 -20 -22 -17 -18 2 -26 13 -34 49 -23 93 -56 131 -155 180
-42 21 -80 31 -135 36 -80 6 -94 16 -74 52 12 24 37 26 89 10z m-1232 -112
c63 -23 136 -45 171 -52 18 -4 45 -13 60 -21 15 -8 33 -14 40 -14 6 0 12 -9
12 -20 0 -24 -67 -57 -84 -40 -5 5 -18 10 -29 10 -10 0 -39 12 -65 28 -59 34
-128 53 -216 59 -54 4 -67 2 -64 -8 3 -8 23 -17 46 -21 23 -4 50 -12 61 -17
11 -6 30 -11 43 -11 13 -1 41 -9 63 -20 22 -11 46 -19 53 -20 6 0 12 -4 12
-10 0 -5 17 -12 38 -16 51 -9 67 -26 87 -92 10 -31 21 -61 26 -66 5 -6 9 -20
9 -33 0 -13 8 -39 18 -58 12 -20 20 -58 21 -94 1 -33 8 -72 16 -88 8 -15 15
-38 15 -49 0 -12 7 -27 15 -34 20 -17 19 -40 -2 -40 -16 0 -75 19 -128 40 -11
5 -43 11 -70 13 -28 3 -64 12 -80 21 -17 8 -41 17 -55 20 -29 6 -56 51 -69
116 -20 101 -33 150 -42 156 -5 3 -9 13 -9 22 0 9 -6 29 -14 44 -8 15 -17 40
-21 57 -4 17 -11 33 -16 36 -5 4 -9 14 -9 23 -1 9 -9 35 -20 57 -11 22 -19 44
-20 48 0 4 18 26 39 47 34 35 45 40 85 40 25 0 63 -6 83 -13z m1196 -4 c35
-20 117 -99 117 -113 0 -5 6 -15 13 -22 22 -23 57 -98 57 -123 0 -28 -29 -50
-78 -59 l-34 -6 7 38 c7 43 -8 121 -33 172 -9 19 -36 53 -59 76 -23 23 -39 44
-36 48 9 9 11 8 46 -11z m112 -3 c121 -62 201 -192 149 -244 -24 -24 -41 -19
-48 14 -15 78 -112 220 -149 220 -17 0 -22 11 -10 23 10 10 15 9 58 -13z
m-205 -10 c25 0 100 -73 100 -97 0 -12 4 -24 9 -27 4 -3 11 -26 15 -52 3 -25
14 -59 23 -75 12 -19 14 -32 8 -37 -6 -4 -18 -19 -28 -34 -18 -29 -70 -62 -81
-51 -11 11 -6 41 11 71 15 27 16 36 4 84 -25 99 -56 145 -130 188 -22 13 6 43
33 36 12 -3 28 -6 36 -6z m548 -30 c2 -14 -3 -27 -12 -32 -26 -15 -21 -73 9
-92 24 -16 27 -16 55 1 29 17 48 49 36 61 -4 3 -16 -5 -27 -17 -28 -30 -53
-24 -57 15 -2 24 2 33 22 44 22 11 28 11 43 -1 10 -9 30 -20 46 -27 33 -14 34
-22 2 -72 -31 -49 -51 -60 -114 -60 -43 0 -52 4 -70 29 -26 36 -26 66 -1 124
27 61 61 75 68 27z m-636 -18 c30 -19 68 -65 68 -80 0 -6 4 -12 10 -14 20 -6
39 -164 24 -202 -11 -29 -82 -10 -84 22 -6 81 -10 106 -19 115 -6 6 -11 18
-11 27 0 16 -45 69 -80 93 -55 38 35 77 92 39z m-106 -78 c24 -19 44 -42 44
-51 0 -9 9 -30 20 -48 11 -17 21 -47 22 -66 3 -33 2 -34 -30 -31 -53 4 -92 28
-92 57 0 31 -42 100 -70 115 -22 12 -27 46 -7 53 35 15 72 5 113 -29z m-568
-6 c5 -7 13 -40 17 -73 4 -33 11 -64 15 -70 18 -26 50 -137 50 -175 0 -24 12
-81 27 -127 l26 -84 -28 -29 c-34 -36 -55 -38 -55 -7 0 13 -4 27 -10 33 -12
12 -28 86 -40 188 -5 43 -14 84 -19 89 -6 6 -11 20 -11 32 0 11 -6 32 -14 46
-7 14 -21 51 -31 82 -17 53 -17 56 1 81 20 27 55 34 72 14z m1552 2 c13 -8 12
-11 -4 -23 -18 -13 -13 -16 55 -26 105 -17 124 -25 124 -47 0 -15 -9 -20 -45
-24 l-45 -5 43 -8 c42 -7 53 -19 30 -33 -6 -4 -38 -7 -70 -6 -53 2 -59 0 -68
-22 -5 -13 -15 -28 -22 -32 -23 -15 -220 -5 -239 11 -18 17 -199 22 -199 6 0
-14 28 -21 85 -21 29 0 69 -7 88 -15 20 -8 61 -15 92 -15 30 0 55 -4 55 -8 0
-5 -18 -16 -40 -25 -30 -11 -49 -13 -73 -6 -17 5 -57 9 -88 9 -31 0 -73 7 -92
15 -40 17 -152 20 -162 5 -7 -11 14 -16 95 -25 156 -16 248 -43 185 -53 -11
-2 -30 -8 -42 -14 -16 -8 -34 -8 -67 1 -53 13 -156 15 -156 2 0 -14 27 -21 81
-21 27 0 49 -4 49 -10 0 -10 -69 -44 -111 -55 -36 -9 -52 14 -47 69 l3 45 -52
26 c-71 34 -69 53 5 46 15 -1 34 9 52 29 22 24 36 30 68 30 33 0 48 8 92 47
l52 47 41 -13 c67 -21 120 -24 148 -9 43 22 86 63 94 89 15 47 48 63 85 39z
m-1137 -17 c9 -3 17 -9 17 -13 0 -4 16 -28 36 -54 20 -26 33 -53 31 -60 -5
-13 -101 -28 -124 -19 -6 2 -14 14 -17 27 -3 12 -19 37 -36 56 -17 19 -29 38
-27 43 4 14 69 35 87 30 8 -3 23 -8 33 -10z m-130 -76 c20 -18 37 -39 37 -46
0 -8 7 -19 16 -25 21 -15 9 -43 -27 -61 -15 -8 -30 -15 -33 -15 -2 0 -16 20
-30 45 -15 25 -40 55 -56 67 -38 28 -38 35 3 52 46 20 49 20 90 -17z m1595
-40 c34 -32 27 -38 -35 -31 -63 7 -89 23 -79 49 8 23 82 11 114 -18z m-1700
-32 c58 -66 82 -130 82 -222 0 -56 -3 -67 -26 -88 -47 -43 -73 -29 -50 26 8
21 10 42 6 54 -7 17 -9 16 -15 -13 -4 -18 -13 -31 -19 -29 -17 6 -19 52 -2 67
32 26 12 105 -46 181 -36 47 -37 79 -4 79 17 0 40 -17 74 -55z m344 -49 c15
-8 42 -17 60 -21 18 -4 38 -11 43 -15 6 -4 34 -11 62 -15 29 -4 55 -11 59 -16
3 -5 15 -9 26 -9 21 0 88 -37 88 -48 0 -4 -21 -16 -46 -26 -42 -17 -50 -18
-78 -4 -17 8 -48 22 -69 31 -20 9 -52 24 -70 32 -30 15 -81 26 -189 42 -21 3
-38 8 -38 11 0 4 12 16 28 29 31 26 84 30 124 9z m1320 -3 c28 -17 30 -17 39
0 16 27 59 20 119 -20 49 -33 65 -48 98 -88 20 -24 42 -81 42 -107 0 -49 -17
-71 -50 -64 -18 3 -30 1 -33 -8 -7 -17 -101 -66 -127 -66 -22 0 -29 34 -9 46
11 6 10 16 -7 129 -4 21 -13 45 -20 53 -8 7 -14 19 -14 26 0 14 -74 86 -89 86
-19 0 -12 -17 19 -50 17 -18 30 -38 30 -45 0 -8 7 -21 16 -30 22 -21 40 -204
25 -234 -10 -18 -61 -37 -78 -29 -4 2 -7 50 -8 108 l0 105 -40 60 c-24 35 -54
66 -73 75 -17 8 -32 23 -32 32 0 21 34 32 59 19 28 -16 58 -13 65 4 7 20 31
19 68 -2z m297 -7 c36 -13 76 -33 89 -45 18 -16 28 -19 35 -12 19 19 57 13 57
-8 0 -11 -4 -23 -10 -26 -13 -8 -13 -51 0 -76 8 -14 21 -19 53 -19 37 1 45 5
65 37 15 24 21 44 17 60 -8 33 -25 19 -25 -22 0 -31 -3 -35 -34 -41 -44 -8
-56 0 -56 37 0 39 35 70 69 62 16 -4 22 -2 17 5 -10 17 4 62 20 62 46 0 62
-137 22 -191 -51 -68 -146 -92 -187 -47 -17 17 -25 19 -43 11 -33 -14 -48 -6
-48 27 0 61 -68 162 -123 183 -19 7 -14 27 6 27 7 0 41 -11 76 -24z m-469 -83
c26 -27 51 -59 55 -73 4 -14 12 -28 18 -32 5 -3 12 -50 15 -105 4 -83 2 -101
-12 -112 -9 -7 -16 -20 -16 -28 0 -14 -39 -34 -52 -26 -5 2 -8 40 -8 84 0 46
-4 79 -10 79 -5 0 -10 11 -10 26 0 33 -38 116 -61 132 -10 7 -25 19 -33 27 -8
8 -24 15 -35 15 -28 0 -26 14 5 39 46 36 89 28 144 -26z m-1280 21 c25 -9 49
-19 55 -24 5 -4 33 -10 60 -14 28 -4 64 -13 80 -21 17 -7 55 -25 85 -39 30
-13 64 -27 75 -30 20 -6 45 -47 45 -76 0 -9 7 -25 15 -36 8 -10 15 -30 15 -44
0 -14 7 -35 15 -47 8 -11 19 -51 24 -89 20 -140 30 -187 39 -193 15 -10 32
-70 21 -77 -12 -7 -87 5 -94 16 -3 5 -24 11 -48 15 -23 4 -46 11 -52 15 -12 8
-128 47 -165 55 -44 9 -51 20 -75 116 -33 131 -44 169 -61 206 -8 17 -14 38
-14 46 0 9 -4 18 -9 21 -4 3 -18 36 -31 73 -13 37 -29 78 -38 90 -14 22 -11
53 5 53 4 0 28 -7 53 -16z m-250 -33 c0 -11 -4 -23 -10 -26 -6 -4 -10 5 -10
19 0 14 5 26 10 26 6 0 10 -9 10 -19z m1354 -16 c3 -8 12 -15 21 -15 19 0 85
-101 85 -130 0 -11 9 -37 20 -57 13 -25 20 -57 20 -94 0 -63 -7 -73 -84 -114
-61 -32 -78 -22 -53 30 28 60 19 151 -25 245 -14 29 -73 90 -88 90 -18 0 -10
29 12 44 29 20 84 21 92 1z m-1172 -67 c2 -42 -4 -53 -27 -45 -17 7 -20 49 -4
79 14 27 27 12 31 -34z m590 28 c4 -6 8 -27 8 -47 0 -19 6 -55 14 -80 39 -127
61 -211 72 -289 3 -25 13 -57 20 -72 19 -38 17 -61 -8 -102 -35 -55 -62 -44
-71 29 -5 39 -27 161 -47 259 -5 27 -14 54 -19 60 -5 6 -12 27 -16 46 -6 34
-26 87 -45 122 -15 27 -12 37 21 68 31 28 55 30 71 6z m465 -33 c45 -48 69
-100 88 -191 10 -51 12 -79 5 -92 -5 -10 -10 -35 -10 -55 0 -29 -5 -37 -27
-46 -16 -6 -36 -15 -45 -20 -10 -5 -25 -9 -34 -9 -14 0 -15 6 -8 33 14 54 9
163 -10 191 -9 14 -16 32 -16 41 0 27 -43 93 -72 110 -35 20 -26 44 24 61 53
20 67 16 105 -23z m-159 -52 c3 -9 16 -29 28 -46 12 -16 26 -43 30 -60 4 -16
11 -33 16 -36 5 -3 11 -51 15 -108 6 -97 5 -103 -17 -126 -13 -14 -33 -25 -45
-25 -21 0 -22 3 -21 105 1 69 -3 108 -10 113 -6 4 -15 22 -19 40 -3 17 -10 32
-15 32 -5 0 -11 8 -14 18 -3 9 -22 28 -41 41 -52 35 -46 57 19 71 40 8 66 1
74 -19z m-121 -73 c12 -12 38 -54 57 -93 33 -64 36 -75 36 -160 l0 -90 -41
-23 c-40 -23 -40 -23 -46 -3 -3 12 -9 21 -13 21 -4 0 -17 23 -29 51 -25 62
-29 149 -6 149 11 0 15 -11 15 -36 0 -20 6 -50 14 -67 8 -18 17 -41 21 -52 6
-18 7 -19 16 -3 7 12 5 27 -6 48 -8 16 -13 40 -10 52 3 13 -1 34 -9 48 -8 14
-26 48 -39 75 -14 28 -35 59 -46 69 -26 23 -26 35 -4 51 21 15 54 2 90 -37z"/>
<path d="M4425 6050 c-122 -7 -145 -14 -145 -41 0 -25 34 -32 95 -19 28 6 85
14 127 18 42 4 80 10 84 14 13 14 -6 38 -28 36 -13 -1 -72 -4 -133 -8z"/>
<path d="M4495 5980 c-11 -5 -34 -9 -52 -9 -42 -1 -63 -10 -63 -27 0 -22 145
-19 189 4 19 9 35 22 35 27 1 13 -83 17 -109 5z"/>
<path d="M3560 5813 c-8 -3 -29 -18 -46 -32 -17 -14 -41 -33 -54 -41 -89 -59
-110 -81 -110 -115 0 -46 33 -72 66 -50 20 13 108 62 184 102 14 7 32 13 40
13 41 0 50 45 21 95 -13 23 -25 30 -52 32 -19 1 -41 -1 -49 -4z m60 -64 c0
-20 -15 -26 -25 -9 -9 15 3 43 15 35 5 -3 10 -15 10 -26z m-62 -30 c2 -20 -6
-28 -40 -43 -24 -11 -49 -26 -56 -33 -7 -7 -22 -13 -33 -13 -10 0 -19 -4 -19
-10 0 -5 -4 -10 -10 -10 -22 0 -8 29 28 56 39 30 42 32 82 64 31 24 44 21 48
-11z"/>
<path d="M4262 5677 c-20 -23 -30 -62 -22 -83 5 -12 28 -31 52 -44 93 -50 75
-35 205 -162 68 -67 73 -70 107 -64 20 4 36 11 36 16 0 5 9 11 19 15 24 7 54
69 46 95 -3 10 -32 36 -63 56 -48 32 -166 125 -182 145 -10 12 -49 29 -65 29
-12 0 -15 -6 -10 -20 5 -16 2 -20 -15 -20 -16 0 -20 4 -16 15 10 28 -71 47
-92 22z m68 -62 c7 -8 21 -15 32 -15 10 0 21 -6 24 -14 3 -7 26 -28 52 -47 26
-18 51 -39 55 -46 4 -7 12 -13 18 -13 5 0 23 -10 39 -22 21 -15 30 -30 30 -50
0 -16 -5 -28 -12 -28 -7 1 -48 34 -91 75 -42 41 -97 86 -122 101 -25 14 -45
30 -45 35 0 5 -7 9 -15 9 -8 0 -15 7 -15 15 0 8 8 15 19 15 10 0 24 -7 31 -15z
m148 -24 c23 -22 42 -42 42 -45 0 -16 -39 -3 -67 23 -17 15 -38 31 -47 34 -24
9 -19 27 7 27 13 0 41 -17 65 -39z m96 -86 c15 -14 36 -25 47 -25 10 0 19 -7
19 -15 0 -9 -9 -15 -25 -15 -16 0 -25 6 -25 15 0 8 -6 15 -12 15 -7 0 -24 12
-37 25 -32 34 -3 34 33 0z"/>
<path d="M3492 5524 c-29 -13 -53 -32 -57 -44 -3 -11 -10 -20 -14 -20 -11 0
-31 -47 -31 -71 0 -27 42 -87 77 -110 21 -14 47 -19 100 -19 72 0 72 0 98 37
39 59 33 103 -29 196 -10 15 -25 27 -32 27 -8 0 -14 4 -14 9 0 19 -51 17 -98
-5z m93 -40 c39 -26 30 -34 -39 -34 -73 0 -90 12 -49 33 38 20 59 20 88 1z
m39 -70 c20 -8 22 -73 3 -99 -17 -23 -37 -12 -37 21 0 17 -5 24 -20 24 -14 0
-20 -7 -20 -24 0 -21 -16 -36 -40 -36 -5 0 -22 14 -39 31 -29 28 -40 67 -24
82 8 9 156 9 177 1z"/>
<path d="M4284 5318 c-104 -74 -99 -200 10 -252 44 -21 130 -21 165 0 43 25
75 93 69 141 -7 50 -41 97 -84 118 -48 23 -123 20 -160 -7z m164 -48 c23 -17
42 -34 42 -39 0 -23 -24 -20 -70 8 -28 17 -59 31 -70 31 -20 0 -33 13 -23 24
17 17 82 4 121 -24z m-143 -20 c3 -5 13 -10 22 -10 9 0 38 -13 65 -30 26 -16
55 -30 63 -30 27 0 29 -30 5 -55 -26 -27 -76 -41 -116 -31 l-25 7 22 18 c18
15 20 21 10 39 -17 31 -37 27 -47 -10 l-10 -32 -22 22 c-26 26 -29 77 -5 104
18 20 29 23 38 8z"/>
<path d="M3518 4943 c-10 -2 -18 -6 -18 -8 0 -13 45 -77 60 -85 29 -16 171
-12 204 5 36 19 95 19 120 0 11 -8 28 -15 38 -15 10 0 18 -4 18 -8 0 -4 12
-13 28 -20 15 -6 45 -23 67 -36 47 -30 100 -33 149 -9 34 16 36 15 88 -10 37
-18 78 -28 133 -32 44 -4 83 -12 86 -17 4 -6 31 -11 60 -12 48 -1 54 1 54 19
0 15 -9 21 -35 26 -19 3 -48 11 -63 18 -16 6 -43 11 -62 11 -19 0 -37 5 -40
10 -3 6 -27 10 -53 10 -30 0 -58 7 -77 20 -35 24 -83 26 -111 5 -28 -21 -65
-18 -115 9 -24 14 -62 35 -84 47 -22 12 -51 28 -65 35 -39 21 -129 17 -175 -7
-56 -30 -120 -22 -156 20 -14 17 -27 30 -30 30 -2 -1 -12 -3 -21 -6z"/>
<path d="M5277 4844 c-10 -11 3 -24 24 -24 23 0 25 15 3 24 -19 7 -19 7 -27 0z"/>
<path d="M5092 4803 c3 -12 12 -17 28 -15 29 3 34 7 25 21 -3 6 -17 11 -31 11
-19 0 -25 -5 -22 -17z"/>
<path d="M6337 4943 c-33 -9 -12 -26 54 -46 35 -10 79 -25 97 -33 37 -16 102
-19 102 -4 0 12 -86 50 -114 50 -12 0 -30 6 -41 14 -24 16 -73 26 -98 19z"/>
<path d="M4538 3623 c-34 -9 -20 -33 18 -33 28 0 35 3 32 17 -3 19 -21 24 -50
16z"/>
<path d="M4900 4234 c0 -9 7 -14 17 -12 25 5 28 28 4 28 -12 0 -21 -6 -21 -16z"/>
<path d="M4830 4201 c-38 -20 -42 -34 -11 -39 20 -3 61 29 61 48 0 14 -11 12
-50 -9z"/>
<path d="M2680 4146 c0 -11 10 -16 31 -16 38 0 35 24 -4 28 -19 2 -27 -1 -27
-12z"/>
<path d="M5210 3695 c0 -11 11 -15 41 -15 36 0 40 2 29 15 -7 8 -25 15 -41 15
-19 0 -29 -5 -29 -15z"/>
<path d="M5235 3639 c-4 -6 3 -13 15 -16 17 -5 20 -11 15 -30 -7 -29 20 -43
38 -20 7 8 25 18 40 21 35 8 26 26 -13 26 -16 0 -35 7 -44 15 -17 18 -42 20
-51 4z"/>
<path d="M5326 2921 c-3 -4 -27 -11 -53 -15 -27 -4 -58 -14 -71 -24 -22 -17
-22 -20 -16 -151 5 -96 11 -134 20 -138 8 -3 45 4 83 16 50 15 72 27 76 41 11
34 12 234 2 258 -10 22 -31 29 -41 13z m-4 -56 c10 -4 13 -30 12 -103 -1 -87
-3 -97 -20 -100 -10 -2 -29 -8 -41 -14 -38 -19 -53 -5 -42 38 7 24 7 45 1 63
-29 75 -23 94 35 111 36 11 39 11 55 5z"/>
<path d="M2718 3718 c-13 -19 -13 -27 0 -60 8 -21 19 -38 24 -38 4 0 8 -7 8
-15 0 -8 20 -36 45 -62 25 -25 45 -49 45 -52 0 -2 20 -24 45 -48 25 -23 45
-45 45 -47 0 -3 21 -27 48 -55 26 -28 64 -71 86 -96 31 -36 44 -45 71 -45 19
0 39 8 49 19 17 18 17 21 -1 48 -27 43 -33 50 -103 123 -89 94 -147 160 -168
190 -48 72 -138 160 -162 160 -10 0 -24 -10 -32 -22z m79 -35 c14 -16 38 -47
54 -71 15 -24 39 -54 53 -67 14 -13 26 -28 26 -33 0 -12 67 -72 80 -72 5 0 10
-6 10 -14 0 -8 17 -32 37 -53 48 -48 104 -129 96 -137 -15 -15 -38 -2 -84 45
-27 28 -49 53 -49 56 0 2 -31 37 -70 77 -38 39 -81 87 -95 106 -14 18 -28 36
-33 39 -20 15 -70 89 -75 112 -12 47 12 52 50 12z"/>
<path d="M4122 3626 c-14 -15 -19 -27 -12 -31 5 -3 13 1 16 9 3 9 15 16 26 16
11 0 18 5 16 12 -7 20 -22 18 -46 -6z"/>
<path d="M4190 3606 c0 -9 7 -16 16 -16 9 0 14 5 12 12 -6 18 -28 21 -28 4z"/>
<path d="M4080 3535 c0 -14 9 -35 20 -47 17 -19 20 -19 20 -5 0 9 -4 17 -10
17 -5 0 -10 11 -10 24 0 14 -4 28 -10 31 -6 4 -10 -5 -10 -20z"/>
<path d="M4133 3544 c-3 -8 -1 -20 5 -26 16 -16 47 -5 50 20 3 18 -1 22 -23
22 -14 0 -28 -7 -32 -16z"/>
<path d="M4143 3453 c9 -2 25 -2 35 0 9 3 1 5 -18 5 -19 0 -27 -2 -17 -5z"/>
<path d="M4130 3276 c0 -8 4 -17 9 -20 10 -7 23 19 14 28 -11 11 -23 6 -23 -8z"/>
<path d="M4336 2591 c-9 -14 20 -21 80 -21 52 0 71 11 38 24 -24 9 -112 7
-118 -3z"/>
<path d="M4245 2531 c-8 -14 3 -18 73 -26 43 -5 62 -4 62 4 0 25 -121 44 -135
22z"/>
<path d="M4740 2440 c0 -5 6 -13 14 -17 21 -12 79 -100 110 -166 31 -65 46
-72 46 -22 0 30 -19 75 -40 95 -3 3 -18 24 -34 48 -16 23 -33 42 -38 42 -5 0
-16 7 -24 15 -17 17 -34 20 -34 5z"/>
<path d="M5070 2330 c0 -27 5 -50 10 -50 6 0 10 23 10 50 0 28 -4 50 -10 50
-5 0 -10 -22 -10 -50z"/>
<path d="M2035 2752 c-22 -15 -41 -35 -43 -44 -4 -22 40 -44 101 -50 92 -10
134 66 57 104 -48 24 -69 22 -115 -10z m83 -43 c-2 -6 -8 -10 -13 -10 -5 0
-11 4 -13 10 -2 6 4 11 13 11 9 0 15 -5 13 -11z"/>
<path d="M5923 2649 c-36 -10 -112 -59 -134 -85 -8 -9 -15 -51 -17 -104 l-4
-89 43 -20 c103 -47 208 -67 224 -41 3 6 17 10 30 10 13 0 36 10 50 23 22 18
27 33 32 92 7 91 -10 134 -69 172 -89 57 -96 59 -155 42z m106 -70 c79 -48 94
-104 36 -132 -40 -19 -129 -22 -172 -6 -35 13 -73 48 -73 66 0 18 38 57 75 76
42 22 94 21 134 -4z m-159 -179 c0 -5 -7 -10 -15 -10 -8 0 -15 5 -15 10 0 6 7
10 15 10 8 0 15 -4 15 -10z m61 -33 c-5 -5 -17 -7 -26 -3 -14 5 -15 9 -5 21
10 12 16 13 27 4 9 -8 10 -16 4 -22z m147 16 c-4 -25 -106 -43 -119 -22 -12
20 0 27 51 32 25 2 51 4 58 5 8 1 12 -5 10 -15z"/>
<path d="M5932 2548 c-22 -14 -32 -28 -32 -45 0 -32 34 -28 38 5 5 33 42 30
42 -4 0 -34 34 -29 38 6 2 19 -4 29 -25 42 -27 16 -30 16 -61 -4z"/>
<path d="M2030 2498 c-25 -5 -54 -11 -66 -13 -30 -6 -47 -47 -48 -117 l-1 -63
106 -3 c91 -2 108 0 121 15 19 22 48 104 48 138 0 49 -58 65 -160 43z m115
-58 c3 -6 0 -12 -7 -14 -7 -2 -29 -8 -48 -14 -62 -19 -102 -19 -114 1 -8 14
-8 20 4 27 20 13 157 13 165 0z m-35 -75 c0 -9 -12 -20 -26 -25 -33 -13 -104
-13 -104 0 0 6 15 10 33 10 17 0 43 7 57 14 33 19 40 19 40 1z"/>
<path d="M5415 2300 c-8 -13 55 -40 95 -40 23 0 30 5 30 19 0 14 -10 20 -46
25 -63 8 -72 8 -79 -4z"/>
<path d="M6229 2187 c-65 -43 -110 -67 -129 -67 -32 0 -50 -28 -50 -78 0 -56
6 -67 44 -76 16 -4 43 -18 61 -32 33 -25 108 -34 120 -15 7 12 64 41 81 41 34
0 79 142 56 176 -7 10 -129 74 -142 74 -4 0 -22 -10 -41 -23z m92 -54 c16 -10
29 -20 29 -24 0 -15 -69 -49 -99 -49 -62 0 -97 40 -49 56 12 3 28 13 36 20 18
19 48 18 83 -3z m-138 -99 c66 -45 30 -86 -38 -44 -24 15 -35 29 -35 46 0 32
25 31 73 -2z m167 -3 c0 -24 -68 -67 -83 -52 -13 13 5 35 42 55 36 19 41 19
41 -3z"/>
<path d="M5629 2110 c-40 -36 -46 -39 -100 -37 -42 1 -63 -3 -77 -16 -25 -23
-36 -22 -68 8 -47 44 -88 29 -127 -46 -19 -36 -29 -45 -56 -47 -38 -4 -37 -25
1 -30 31 -4 57 -50 36 -63 -7 -5 -17 -9 -23 -10 -5 -1 4 -4 20 -8 21 -4 30
-12 30 -26 0 -18 -6 -20 -50 -17 -27 1 -54 7 -59 12 -15 15 -33 12 -40 -6 -9
-23 12 -46 32 -35 19 11 54 2 49 -13 -2 -6 -18 -11 -35 -11 -43 0 -50 -22 -9
-33 26 -7 33 -14 39 -47 10 -46 17 -52 79 -60 33 -5 56 -2 75 8 20 11 37 12
68 5 52 -12 66 -24 66 -58 0 -33 14 -40 82 -40 44 0 53 4 81 35 17 19 39 35
48 35 10 0 39 11 65 25 34 18 51 22 64 15 51 -27 81 2 92 87 9 74 1 93 -38 93
-21 0 -24 5 -24 38 0 27 -9 51 -29 79 -16 22 -32 59 -36 84 -8 51 -26 74 -77
100 l-36 18 -43 -39z m83 -78 c-2 -40 1 -47 43 -87 39 -38 45 -50 45 -85 0
-36 4 -43 35 -61 19 -12 32 -25 29 -30 -3 -5 -30 -9 -60 -9 -30 0 -54 -4 -54
-8 0 -8 -54 -34 -96 -46 -12 -4 -29 -15 -39 -26 -32 -35 -77 -22 -105 31 -7
13 -21 19 -45 19 -18 0 -37 5 -40 11 -15 24 -50 27 -83 8 -17 -10 -39 -16 -47
-13 -19 8 -20 50 -1 57 8 3 17 24 21 46 4 22 16 52 27 66 25 32 20 57 -12 65
-34 8 -40 47 -8 59 18 6 29 3 51 -15 35 -29 42 -29 90 -4 25 13 56 20 95 20
50 0 62 4 82 25 16 17 33 25 50 23 23 -3 25 -7 22 -46z m-432 -321 c15 -29 12
-41 -10 -41 -23 0 -35 22 -26 45 8 21 23 19 36 -4z m545 9 c8 -13 -20 -24 -42
-16 -15 6 -15 8 -3 16 20 13 37 12 45 0z m-435 -8 c0 -10 -41 -35 -47 -28 -11
11 7 36 27 36 11 0 20 -3 20 -8z m80 -27 c0 -15 -26 -20 -54 -9 -24 9 -9 24
25 24 19 0 29 -5 29 -15z m285 5 c3 -5 -5 -12 -19 -16 -13 -3 -27 -12 -30 -20
-7 -17 -49 -19 -44 -1 3 6 13 14 24 16 10 2 23 9 27 17 9 16 33 19 42 4z
m-160 -85 c0 -22 -39 -32 -64 -16 -12 8 -13 12 -1 26 19 23 65 16 65 -10z"/>
<path d="M5512 1970 c-24 -4 -47 -11 -50 -16 -4 -6 -22 -20 -39 -33 -26 -18
-33 -29 -33 -56 0 -27 6 -37 34 -54 18 -12 39 -21 46 -21 8 0 22 -8 32 -17 13
-11 37 -17 81 -17 54 -1 67 3 99 29 33 26 38 36 38 71 0 34 -6 47 -37 77 -38
39 -79 49 -89 22 -5 -12 -9 -12 -23 3 -13 15 -25 17 -59 12z m121 -91 c44 -12
55 -31 37 -65 -12 -22 -20 -24 -81 -24 -51 0 -77 5 -104 21 -33 20 -35 23 -22
43 23 34 98 45 170 25z"/>
<path d="M3130 2130 c20 -13 40 -13 40 0 0 6 -12 10 -27 10 -22 0 -25 -2 -13
-10z"/>
<path d="M4962 2078 c3 -7 15 -15 27 -16 16 -3 22 1 19 10 -3 7 -15 15 -27 16
-16 3 -22 -1 -19 -10z"/>
<path d="M2390 2035 c-10 -12 -10 -18 0 -30 9 -11 34 -15 96 -15 45 0 85 -4
88 -9 8 -12 62 -22 81 -15 48 19 -38 58 -146 67 -42 4 -83 9 -91 12 -8 3 -21
-1 -28 -10z"/>
<path d="M2804 1988 c-15 -24 35 -48 105 -48 38 -1 76 -7 91 -15 14 -8 44 -14
66 -15 28 0 44 -5 48 -15 4 -11 22 -15 76 -15 38 0 70 4 70 9 0 11 -36 21 -80
21 -20 0 -45 6 -56 14 -11 8 -37 17 -57 21 -21 4 -40 11 -43 16 -3 5 -24 9
-48 9 -24 0 -65 7 -92 15 -59 18 -71 18 -80 3z"/>
<path d="M5120 1895 c0 -11 11 -15 40 -15 40 0 53 13 24 24 -29 11 -64 7 -64
-9z"/>
<path d="M3012 1773 c2 -13 16 -20 53 -24 28 -4 75 -14 105 -24 75 -23 163
-44 235 -58 33 -6 62 -14 65 -18 3 -4 33 -11 68 -16 48 -8 65 -7 73 3 19 23 0
34 -55 34 -35 0 -58 5 -66 15 -6 8 -38 17 -71 21 -33 4 -62 11 -65 15 -3 5
-17 9 -32 9 -25 0 -82 15 -157 43 -16 5 -59 12 -93 15 -58 3 -63 2 -60 -15z"/>
</g>
</svg>
